<?xml version="1.0" encoding="UTF-8"?>
<svg id="Layer_1" data-name="Layer 1" xmlns="http://www.w3.org/2000/svg" viewBox="0 0 1024 1024">
  <defs>
    <style>
      .cls-1 {
        fill: blue;
      }

      .cls-1, .cls-2 {
        stroke-width: 0px;
      }

      .cls-2 {
        fill: lime;
      }
    </style>
  </defs>
  <rect class="cls-1" x="0" width="1024" height="1024"/>
  <g>
    <path class="cls-2" d="M610.29,695.86c-20.63,18.24-40.59,35.9-60.56,53.56,1.11,1.23,2.23,2.45,3.34,3.68,20.5-18.45,41.01-36.89,64.09-57.65-15.43,17.55-28.7,32.65-41.97,47.76.28.36.56.72.85,1.08,15.6-14.04,31.21-28.08,51.17-46.05-13.9,16.52-24.16,28.71-34.42,40.9.44.48.89.96,1.33,1.44,9.88-8.47,19.75-16.94,29.63-25.41.3.23.6.46.9.69-6.92,7.86-13.83,15.72-20.87,23.72,45.94-4.05,91.82-8.09,137.7-12.14.12.81.25,1.61.37,2.42-31.46,5.48-62.92,10.96-94.39,16.44.1.56.19,1.11.29,1.67,6.8-.95,13.6-1.9,20.4-2.85.09.43.18.85.27,1.28-16.09,3.55-32.18,7.1-48.26,10.65.03.31.05.61.08.92,15.74-1.18,31.48-2.37,47.22-3.55l.16,1.35c-13.43,2.43-26.86,4.87-40.28,7.3.07.57.14,1.14.2,1.7,20.42-1.63,40.84-3.27,65.16-5.21-24.64,4.65-45.39,8.56-66.13,12.47l.22,1.11c21.32-1.63,42.64-3.27,63.95-4.9.08.43.15.86.23,1.29-17.82,2.7-35.65,5.4-53.47,8.1.04-.49.08-.97.11-1.46,19.46,0,38.93,0,58.39.02.88,0,1.75.36,2.63.55-1.36,1.24-2.51,3.04-4.11,3.63-20.75,7.73-41.64,15.05-62.33,22.93-41.61,15.85-79.51,37.93-112.41,68.19-.86.79-2.71.81-3.19,1.68-12,22.07-17.69,2.89-27.03-3.17-34.19-22.19-67.48-46.91-104.32-63.57-42.5-19.22-88.44-30.82-132.74-46.15-2.58-.89-5.38-5.42-5.51-8.37-.55-12.38-1.2-24.95.42-37.15.72-5.46,5.56-12.21,10.45-15,34.17-19.48,70.21-35.98,103.01-57.46,42.39-27.77,48.19-71.97,44.51-118.46-.12-1.57-.15-3.15,1.24-4.98,6.41,37.21,12.81,74.41,19.12,111.02-4.43-14.97-9.1-30.75-13.78-46.53-.29.06-.57.11-.86.17,3.7,18.34,7.4,36.67,11.09,55.01-.48.17-.97.34-1.45.5-3.56-11.09-7.12-22.17-10.68-33.26-.36.08-.73.16-1.09.24,3.48,14.39,6.95,28.79,11.41,47.27-5.63-13.34-9.63-22.82-13.2-31.28-.16,36.77,10.74,61.47,39.93,94.74-8.94-11.26-19.36-21.67-26.39-34.01-7.08-12.44-10.79-26.79-14.69-36.94-.62,20.77,10.11,39.53,53.34,95.58-17.92-21.01-35.84-42.03-56.2-65.91,9.45,15.35,15.2,30.1,25.51,40.2,17.82,17.46,36.3,37.06,58.44,46.64,34.12,14.75,58.33-10.16,81.54-32.04,12.87-12.13,27.27-22.64,41.61-34.4Z"/>
    <path class="cls-2" d="M459.12,542.6c-31.88-26.79-53.27-60.72-67.71-99.41,4.52,9.65,9.05,19.3,14.85,31.67-5.13-17.55-9.39-32.13-13.65-46.71.9-.27,1.81-.54,2.71-.81,2.2,7.72,4.39,15.44,7.46,26.24-1.32-12.1-2.29-20.98-3.25-29.85.66-.12,1.32-.25,1.99-.37,1.21,4.91,2.42,9.81,4.04,16.39v-19.62c2.07,6.23,3.22,9.69,5.2,15.62v-14.93c1.6,2.14,2.55,3.41,3.5,4.68.31-.9.61-1.8,1.12-3.28.75,1.92,1.3,3.35.75,1.93,4.31-.7,7.86-1.8,11.39-1.75,16.17.22,32.39,1.55,48.47.54,3.25-.2,5.96-8.85,9.82-15.06-.19,2.89-.27,4.08-.39,5.9,1.83-2.57,3.35-4.72,4.87-6.86,10.52-12.39,19.58-12.32,26.65,2.3-.11-2.16-.16-3.33-.33-6.7,2.38,5.71,3.97,9.51,7.31,17.49-1.56-6.91-2.14-9.45-4.13-18.24,14.31,36.48,39.09,14.85,57.85,19.2,3.83.89,7.79,1.25,14.3,2.26-1.03.09,1.18-.1,3.39-.3.22,2.72.43,5.43,1.01,12.73.85-7.69,1.19-10.82,1.53-13.95.4,0,.8,0,1.2-.01v13.86c.52.05,1.04.1,1.56.16,1.04-5.06,2.08-10.12,3.12-15.18.58.04,1.16.07,1.74.11-.53,8.87-1.05,17.75-1.72,29.06,2.38-10.29,4.22-18.26,6.07-26.24,2,.74,4,1.48,6.01,2.22-11.51,29.53-23.01,59.06-34.52,88.59.14.1.29.2.43.3,12.15-28.35,24.29-56.69,33.1-77.26-3.28,35.38-24.16,70.52-57.88,98.81-35.53,29.81-59.07,31.38-97.97,6.34l.1.12Z"/>
    <path class="cls-2" d="M664.77,179.4c-29.7,5.31-54.74-7.33-79.39-21.03-39.05-21.7-79.68-34.57-124.77-23-5.31,1.36-10.33,3.89-15.56,5.91,10.03-15.2,41.09-18.43,99.66-11.12-35.3-10.3-70.25-11.99-105.88,1.6,17.17-7.34,34.33-14.68,47.56-20.34-22.13-2.17-47.63,11.14-65.13,37.03-.73-16.87,25.21-39.67,63.65-61.43-19.39,8.9-38.78,17.81-58.16,26.71-.33-.28-.67-.57-1-.85,18.28-11.47,36.57-22.93,51.36-32.21-23-2.45-55.09,23.59-66.06,57.29.44-5.25.88-10.49,1.32-15.74-.46-.13-.92-.25-1.38-.38-1.55,6.42-3.1,12.85-4.55,18.87-4.1-21.43,13.74-48.79,42.8-65.09,35.84-20.1,103.2-18.24,128.13,4.26-33.86-10.56-66.95-19.73-102.69-7.62,40.8-2.73,109.06,7.56,131.21,19.52-11.2-2-22.34-4.44-33.6-5.87-11.32-1.43-22.76-1.84-38.28-3.01,37.46,14.19,80.17,1.49,104.5,37.54-7.77-4.49-16.13-9.32-24.49-14.15-.31.53-.62,1.05-.93,1.58,5.87,4.07,11.74,8.14,21.57,14.95-11.48-4.43-18.47-7.13-29.38-11.35,10.91,6.98,18.23,11.66,26.34,16.84-15.24-5.2-29.45-10.04-43.67-14.89-.04.22-.08.43-.12.65,13.58,6.21,27.16,12.43,40.74,18.64-.18.44-.36.89-.54,1.33-13.67-4.75-27.33-9.5-41-14.25l-1.82,4.44c29.65,12.23,59.31,24.47,88.96,36.7l-.46,1.71c-28.22-9.69-56.44-19.39-84.66-29.08.1-.53.21-1.07.31-1.6,12.25,7.46,24.51,14.91,41.54,25.28-17.6-7.39-30.26-12.71-42.91-18.03-.58,1.41-1.16,2.82-1.73,4.24,24.78,10.01,49.56,20.02,74.35,30.03-.3.97-.6,1.94-.9,2.92-30.73-11.09-61.46-22.17-85.69-30.92,23.43,16,53.4,34.29,90.76,33.88Z"/>
    <path class="cls-2" d="M559.27,240.75c-35.34-29.67-71.92-55.34-122.79-41.67,14.89-3.41,29.76-9.37,44.68-9.5,15.23-.14,30.51,5.46,40.76,7.53-23.39-13.38-52.44-16.42-82.61-3.92,7.2-13.31,38.76-15.79,76.65-5.77-20.79-18.03-62.18-16.65-88.88,2.97.18-13.54,25.28-30.63,46.24-36.29-15.94,7-31.89,14.01-44.89,19.72,6.68-13.83,22.71-21.84,41.03-26.66,39.5-10.38,71.47,5.87,101.1,29.26,20.75,16.38,40.09,35.06,69.06,35.39,25.33.29,49.5-23.23,46.44-45.45,13.48,11.19,3.46,33.69-26.37,61.98,6.77-4.47,13.53-8.95,19.02-12.58-16.26,23.89-60.66,35.8-115.56-13.1,18.18,27.55,63.79,45.53,99.62,35,21.12-6.21,32.61-24.76,34.05-48.27,4.73,14.03-5.66,32.85-25.27,46.67-24.42,17.2-72.62,8.75-106.47-18.67-.87,1.81-1.74,3.61-2.61,5.42,24.5,11.74,49,23.49,69.62,33.37-15.59-4.26-36.03-9.86-56.47-15.45-.25.41-.49.82-.74,1.24,19.3,7.8,38.59,15.59,57.89,23.39-.19.71-.38,1.41-.58,2.12-22.19-7.66-44.38-15.33-66.57-22.99-4.68,1.64-5.62,1.09-6.36-3.72Z"/>
    <path class="cls-2" d="M849.28,778.03c-92.97,36.56-181.25,71.28-269.53,106,.36,1.02.71,2.04,1.07,3.05,4.54-3.06,9.07-6.11,13.61-9.17-.26-.44-.53-.88-.79-1.31-12.28,7-24.57,14-34.72,19.78.72-.77,3.31-3.58,5.9-6.38-.29-.36-.59-.72-.88-1.08-9.48,7.28-18.96,14.56-28.44,21.84-.22-.25-.44-.51-.65-.76,5.75-4.84,11.51-9.69,17.26-14.53-2.2-2.23-4.4-4.47-6.59-6.7-11.34,14.71-22.68,29.42-34.02,44.14-1.29-1.24-2.57-2.47-3.86-3.71,21.08-22.1,42.16-44.2,58.07-60.88-9.31,5.93-25.43,16.18-42.79,27.23,8.94-7.85,16.95-14.88,24.95-21.9l-1.36-1.77c-11.9,9.24-23.8,18.49-35.71,27.73-.57-.64-1.15-1.28-1.72-1.92,15.04-13.58,29.14-28.42,45.31-40.49,46.47-34.68,100.8-52.33,155.29-69.64,43.28-13.74,86.11-28.89,129.29-42.98,8.88-2.9,18.39-3.89,28.16-3.35-25.92,9.32-51.85,18.63-77.77,27.95.19.55.39,1.11.58,1.66,23.54-7.13,47.08-14.26,70.62-21.4.13.43.26.86.39,1.29-64.26,24.02-128.51,48.04-192.77,72.06.1.41.2.81.31,1.22,49.01-15.21,98.02-30.43,147.05-45.63-52.79,21.18-105.6,42.35-158.41,63.51.34.87.69,1.74,1.03,2.61,62.15-21.62,124.3-43.24,191.11-66.49Z"/>
    <path class="cls-2" d="M498.63,929.97c-14.91-17.06-29.82-34.13-44.73-51.19-1.69,1.69-3.38,3.39-5.07,5.08,7.2,8.31,14.4,16.62,19.11,22.06-8.32-6.26-19.77-14.88-34.09-25.66,3.47,5,4.79,6.89,6.1,8.79-2.28-1.31-4.55-2.62-6.83-3.92-6.08-3.48-12.16-6.97-18.94-9.28,6.71,4.18,13.43,8.36,20.14,12.54.12-.31.24-.62.36-.93-62.19-27.19-124.38-54.39-190.86-83.46,40.35,14.46,76.43,27.39,112.5,40.32l1.14-2.56c-36.83-15.85-73.65-31.7-110.48-47.55.14-.35.28-.71.42-1.06,28.28,8.44,56.57,16.88,84.85,25.32.12-.4.25-.79.37-1.19-26.34-9.96-52.7-19.85-78.97-29.98-2.58-1-4.58-3.51-6.85-5.32,2.79.32,5.68.29,8.36,1.03,7.89,2.19,15.7,4.69,24.03,5.56-9.42-3.35-18.97-6.4-28.17-10.29-1.97-.83-2.67-4.68-3.95-7.14,1.9.08,3.97-.31,5.68.31,52.61,19.11,106.67,35.13,157.21,58.68,30.88,14.4,56.37,40.38,84.21,61.26,1.54,1.15,2.34,3.29,4.8,6.88-13.76-10.81-25.62-20.12-37.48-29.44-.43.51-.86,1.02-1.29,1.53,6.26,5.8,12.53,11.59,22.57,20.89-17.36-10.74-30.25-18.72-38.87-24.05,16.8,18.05,36.78,39.51,56.76,60.97-.68.6-1.35,1.21-2.03,1.81Z"/>
    <path class="cls-2" d="M232.46,947.4c-.29-4.84-.58-9.68-.87-14.51-.48,0-.96,0-1.44,0-.47,4.6-.95,9.2-1.42,13.8-1.2-.01-2.4-.02-3.6-.03v-254.03l-3.4.02v78.5c-.95,0-1.9,0-2.85.01v-128.57c-1.1,0-2.2-.01-3.3-.02v94.76c-.34,0-.68.01-1.02.02v-68.21c-.31,0-.63,0-.94,0-.63,7.71-1.26,15.42-1.81,22.2-9.55-98.23,5.16-185.34,31.46-209.78-3.16,152.1-6.41,308.97-9.67,465.83-.37,0-.75,0-1.12,0Z"/>
    <path class="cls-2" d="M417,264.59c-3.05,3.86-6.1,7.72-8.85,11.2,5.33-12.32,7.57-29.67,17.17-36.23,9.53-6.51,30.32-7.77,39.47-1.53,28.18,19.24,53.15,43.17,79.35,65.3.19.16.16.59-.09-.45-45.41,2.06-91.06,4.13-133.92,6.08,1.54-.86,6.1-3.42,10.65-5.97-.31-.61-.62-1.23-.93-1.84-6.5,3.02-12.99,6.04-21.64,10.07,7.18-5.85,12.66-10.3,18.13-14.76-.23-.36-.46-.73-.69-1.09-6.45,3.97-12.91,7.95-20.83,12.82,7.91-7.46,14.55-13.72,21.19-19.99-.37-.39-.74-.78-1.1-1.17-4.62,3.57-9.24,7.14-16.64,12.86,7.6-9.55,12.99-16.34,18.39-23.13-.59-.56-1.17-1.11-1.76-1.67-3.64,4.71-7.29,9.42-10.93,14.12-.5-.49-1-.97-1.5-1.46,5.21-7.43,10.43-14.86,15.64-22.29-.38-.29-.75-.58-1.13-.87Z"/>
    <path class="cls-2" d="M153.52,476.22c2.78,9.39,6.34,18.64,8.2,28.21,5.46,28.01,14.46,56.13,14.55,84.23.37,108.12-2.16,216.26-3.73,324.38-.19,13.39-1.15,26.76-1.71,39.11-.8-5.92-1.75-12.93-2.7-19.94-.78.84-1.56,1.68-2.7,2.91-3.1-153.05-6.19-305.68-9.28-458.31-.88-.2-1.76-.39-2.64-.59Z"/>
    <path class="cls-2" d="M278.24,243.04c20.86,43.85,62.99,25.84,94.44,1.03-13.3,5.56-24.6,10.31-35.91,15.02-13.6,5.66-25.95,4.7-34.39-4.38,8.3,1.74,18.89,3.96,29.49,6.17-18.54-4.57-34.94-10.5-39-31.89-1.18-6.21,2.17-13.27,5.3-19.83-3.81,16.37.24,28.97,15.89,35.66,17.38,7.44,32.01-1.53,44.7-11.5,10.9-8.57,18.99-20.62,29.33-30.02,7.69-6.99,17-12.2,27.74-15.3-9.95,15.33-19.89,30.66-29.84,45.99.54.41,1.09.83,1.63,1.24,7.36-10.42,14.65-20.88,22.12-31.22,1.91-2.65,4.36-4.91,6.56-7.35-.14,3.33.24,6.78-.49,9.98-8.51,37.2-50.72,74.65-90.41,80.6-20.89,3.13-42.4,5.74-42.67,34.51,0,.51-.58,1.01-.89,1.52-.86-.92-2.11-1.69-2.51-2.78-5.38-14.69,3.5-23.17,13.5-31.33.94-.76,1.03-4.04.2-5.24-3.49-5.02-7.48-9.7-10.44-15.14,27.71,24.1,65,16.85,97.45-19.44-26.6,15.6-52.82,35.77-85.43,16.66-7.4-4.34-11.02-15.15-16.38-22.98Z"/>
    <path class="cls-2" d="M200.16,538.75c0-15.01-2.27-30.54,1.03-44.79,1.47-6.35,14.16-10.1,21.76-15.03-.24,4.28.52,8.93-.87,12.79-30.9,85.76-13.33,174.79-17.4,262.29-2.88,61.92-2.1,124.01-2.97,186.02-.02,1.57-.3,3.14-3.55,4.67,0-44.62.2-89.23-.04-133.85-.45-81.37.24-162.79-2.59-244.08-.92-26.3-11.43-52.25-17.33-78.42-.78-3.45-.23-7.2-.3-10.81,1.53,3.37,3.49,6.62,4.52,10.14,4.98,17.04,9.71,34.15,14.52,51.24,1.08-.06,2.15-.12,3.23-.18Z"/>
    <path class="cls-2" d="M559.27,240.75c2.12,1.24,4.24,2.48,6.36,3.72,45.06,46.61,112.37,30.19,139.67-26.29-5.06,10.05-10.12,20.09-15.17,30.14l3.22,1.81c6.21-11.14,12.42-22.28,17.75-31.84,9.51,10.34,8.04,12.94-33.74,46.04,10.11-3.82,17.67-6.68,25.24-9.54.19.39.38.78.57,1.17-5.01,2.57-9.96,5.29-15.06,7.68-5.02,2.34-10.2,4.35-16.61,7.04,29.69.84,40.86-5.83,50.85-29.43,4.11,12.75-14.25,31-33.19,33.61-11.6,1.6-23.41,2.99-34.54,6.38-47.68,14.55-84.01-7.39-119.6-34.75-16.42-12.63-34.96-22.51-50.07-32.07,17.39,7.59,38,16.59,56.03,24.46-20.95-22.5-59.29-35.98-94.77-30.04,26.66-9.52,48.63-3.99,69.53,6.47,14.99,7.5,29.05,16.88,43.52,25.42Z"/>
    <path class="cls-2" d="M840.86,562.74c-.14,2.41-.23,3.92-.32,5.44,1.2-1.01,2.89-1.79,3.48-3.08.73-1.6.8-3.63.68-5.44-.14-2.16-.8-4.28-1.23-6.42,1.81-.07,4.59-.85,5.2-.03.94,1.27,1.16,4.08.36,5.47-4.37,7.54-2.15,8.45,5.9,8.35,35.92-.47,71.85-.06,107.77-.21.99,0,2.44-2.67,2.86-4.3.82-3.25,1.08-6.65,1.57-9.98,1.93,2.34,3.46,5.27,5.87,6.92,13.66,9.35,7.14,19.8.29,28.24-7.03,8.66-15.47,17.3-25.15,22.47-38.14,20.37-84.11,10.51-110.79-23.16-6.18-7.8-11.64-17.74,3.52-24.26Z"/>
    <path class="cls-2" d="M631.27,571.77c2.39-6.99,4.79-13.99,7.16-20.99.2-.58.31-1.26.23-1.85-.34-2.44-.77-4.86-1.17-7.29,1.53.21,3.05.42,4.58.62-.55,2.87-.49,6.04-1.76,8.53-2.54,4.95-5.81,9.52-7.74,14.91,1.14-1.45,2.28-2.91.39-.49,7.03.89,10.58,1.72,14.13,1.72,35.05,0,70.1-.12,105.15-.24,1.89,0,3.77-.37,5.66-.56-.37-1.89-.58-3.83-1.13-5.67-.92-3.09-2.04-6.11-3.07-9.17,3.09,2.15,7.08,3.67,9.12,6.57,12.2,17.24,8.19,29.44-14.8,46.76-31.76,23.93-88.9,18.81-115.61-10.53-3.4-3.74-6.93-7.97-8.5-12.61-1.54-4.53-.64-9.88-.82-14.86,2.73,1.72,5.46,3.43,8.19,5.15,6.97-.02,13.75,1.44,20.33,3.43,6.25,1.89,12.58,2.95,19.01,3.7,4.76,1.27,9.75,1.4,14.56,1.51,11.01.26,21.97,1.81,33.04.82,4.56-.41,9.06-1.86,12.31-1.3-18.87,3.18-39.06.65-59.28-.55-13.26-1.86-25.94-6.47-39.24-8.12-.25-.03-.51.26-.74.53Z"/>
    <path class="cls-2" d="M599.15,641.37c.94-14.41,1.88-28.83,3.06-46.94-4,17.6-7.17,31.52-10.34,45.44-.31-.07-.63-.15-.94-.22,2.75-19.99,5.49-39.98,8.24-59.97-.38-.05-.75-.1-1.13-.15-5.11,21.11-10.22,42.22-16,66.07,7.86-44.9,15.22-86.99,22.58-129.07l2.14.2c0,20.49-1.62,41.14.34,61.43,3.89,40.18,30.86,65.91,63.52,82.69,41.34,21.24,85.48,37.01,128.38,55.2,4.71,2,9.31,4.28,13.88,6.59,1.74.88,3.25,2.21,9.81,6.78-17.45-5.53-29.38-9.37-41.35-13.11-50.28-15.68-99.98-32.82-141.2-67.2-9.32-7.78-16.2-18.52-24-28.06-3.18-3.89-5.83-8.21-8.72-12.33-.66.8-1.76,1.52-1.93,2.41-1.93,10.12-3.72,20.27-5.54,30.41-.27-.06-.54-.12-.82-.19Z"/>
    <path class="cls-2" d="M543.69,941.4c8.75-7.81,18.88-16.84,29.01-25.87-.73-.8-1.45-1.6-2.18-2.4-11.07,9.04-22.15,18.08-32.68,26.67,52.7-68.06,134.11-79.76,209.59-103.33-11.58,5.32-23.16,10.65-34.75,15.97.37,1.02.74,2.05,1.11,3.07,27.4-9.01,54.81-18.02,82.21-27.03.26.83.53,1.67.79,2.5-29.52,9.03-59.38,17.09-88.45,27.37-29.27,10.35-58.7,21.03-86.31,35.02-27.62,14.01-53.07,32.3-78.36,48.02Z"/>
    <path class="cls-2" d="M680.78,303.08c23.2,5.31,38.08,30.29,29.37,50.83,1.31-23.78-9.76-37.88-34.68-47.49,21.41,13.45,31.37,28.25,28.16,50.37-31.44-47.01-34.69-49.35-69.03-48.38,13.96,2.52,25.95,4.69,42.29,7.64-5.43,1-6.46,1.19-3.78.69,6.46,12.57,13.39,25.97,20.12,39.46.48.95-.58,2.67-.92,4.03-.68-.61-1.86-1.14-1.98-1.84-6.68-39.65-38.55-41.45-68.97-47.76-35.15-7.29-66.51-23.08-90.12-51.49,27.45,22.55,56.93,43.2,93.31,44.07,34.87.83,71.6.36,96.34-33.17-3.72,5.28-7.6,10.46-11.04,15.93-.71,1.14-.39,4.25.53,4.88,10.94,7.51,20.55,15.43,13.63,30.75-.49,1.09-1.73,1.85-2.62,2.77-.28-.52-.69-1.01-.83-1.56-7.8-31.72-8.12-31.88-39.79-19.72Z"/>
    <path class="cls-2" d="M316.19,304.64c-8.61,15.41-17.21,30.83-25.17,45.08-4.7-4.87,1.35-31.09,15.49-40.35,12.05-7.88,25.96-13.25,39.58-18.32,36.14-13.46,58.36-39.6,70.82-76.16,1.53,17.24-7.13,37.62-27.94,55.59-15.72,13.57-34.48,23.63-55.33,37.54,17.72-7.38,31.85-13.26,45.99-19.15.2.25.4.51.59.76-11.8,6.2-23.32,12.99-35.44,18.48-35.9,16.27-47.43,40.16-32.68,75.36,3.58,8.55,17.99,20.39,23.36,18.6,8.97-3,15.19-15.42,21.45-24.63,2.27-3.34,1.33-8.87,6.37-12.06-4.03,12.2-5.81,25.91-12.68,36.22-8.64,12.97-23.42,11.07-31.61-.33-15.38-21.38-30.45-62.94-3.68-88.23,1.97-1.86,4.02-3.62,6.03-5.43-1.72-.99-3.44-1.99-5.16-2.98Z"/>
    <path class="cls-2" d="M277.49,837.24c68.74,16.56,162.42,49.72,194.96,104.34-12.6-11.17-25.81-22.89-39.03-34.61-.28.33-.56.66-.84.99,10.43,11.26,20.86,22.53,31.29,33.79.3-.68.59-1.36.89-2.04-29.5-18.15-58.36-37.48-88.69-54.12-30.46-16.72-62.4-30.75-98.59-48.35Z"/>
    <path class="cls-2" d="M240.22,137.97c-.29,22.15-20.36,43.07-40.84,42.57-19.75-.48-37.35-21.01-37.24-43.45.09-17.33,21.71-39.78,38.47-39.93,15.61-.14,39.82,24.8,39.61,40.8Z"/>
    <path class="cls-2" d="M225.29,449.92c-41.98,4.33-83.97,8.69-125.97,12.87-1.47.15-3.12-1.49-4.68-2.3,1.16-2.14,1.98-5.88,3.52-6.2,67.49-14.13,135.01-17.91,202.39.6,1.9.52,3.24,3.09,4.85,4.7-2.1,1.13-4.35,3.45-6.29,3.22-24.42-2.91-48.79-6.19-73.18-9.37-.22-1.18-.43-2.35-.65-3.53Z"/>
    <path class="cls-2" d="M313.26,472.36c-.27-6.1-3.08-14.32-.19-17.77,3.92-4.68,14.95-9.61,18.02-7.45,5.61,3.93,10.79,13.35,10.1,19.82-.54,5.08-10.63,13.42-15.75,12.91-13.64-1.33-26.77-9.1-40.33-9.82-20.31-1.09-41.33-.73-61.09,3.5-16.22,3.47-30.37,5.1-46.8.11-31.39-9.54-62.79-7.35-93.93,5.01-6.69,2.66-17.28-4.48-26.07-7.11,2.47-8.15,3.14-17.86,8.24-23.73,2.26-2.6,15.27.58,20.02,4.87,3.51,3.17,1.57,12.39,1.98,18.93.06.91-.33,1.85-.52,2.77.78.09,1.69.48,2.32.22,32.52-13.37,65.24-11.36,98.78-3.46,10.71,2.52,23.2.01,34.37-2.45,32.63-7.2,64.13-5.2,95.19,7.29,4.11,1.65,10.34.92,14.38-1.1,3.26-1.63,4.69-6.9,6.93-10.55-2.95-.15-6.44-1.37-8.74-.21-4.42,2.23-19.23-12.02-16.92,8.21Z"/>
    <path class="cls-2" d="M459.12,542.6s-.1-.12-.1-.12c19.24,25.61,59.7,25.47,90.64,2.03,29.49-22.34,51.4-49.76,64.76-83.99,2.81-7.19,3.32-15.27,5.48-25.81-.78,8.37-1.29,13.88-2.01,21.63,2.57-6.05,4.3-10.12,6.03-14.18,1.04.43,2.08.86,3.12,1.29-5.88,13.86-10.54,28.41-17.88,41.45-21.86,38.86-50.34,71.1-96.48,80.33-28.26,5.66-49.77-10.58-69.81-27.66-32.33-27.55-53.88-61.64-60.82-100.21,10.76,19.3,21.56,42.82,36.22,63.62,11.06,15.68,27.05,27.88,40.85,41.64Z"/>
    <path class="cls-2" d="M405.52,179.48c-29.22-.08-44.73,36.81-76.31,28.77,9.42-3.78,18.36-7.36,24.98-10.02-7.9.81-18.12,3.83-27.45,2.09-6-1.12-13.57-8.48-15.12-14.43-1.43-5.52,2.42-14.76,7.02-19.1,19.92-18.78,58.12-23.3,79.47-10.73,1.59.94,2.96,2.27,6.6,5.12-6.39-1.49-10.09-2.36-16.22-3.79,8.28,3.6,14.26,6.2,22.46,9.77-12.78-1.42-22.98-3.18-33.23-3.52-10.17-.34-20.38.73-31-.21,11.79-2.28,23.58-4.56,33.54-6.49h-31.56c4.32-.96,6.78-1.5,9.25-2.05-.44-1.13-.88-2.26-1.32-3.4-11.91,4.86-24.67,8.39-35.3,15.24-4.16,2.68-6.92,16.34-4.37,18.77,5.33,5.09,15.25,9.37,22.13,8.03,16.26-3.16,31.69-10.36,47.78-14.73,5.73-1.56,12.41.34,18.65.67Z"/>
    <path class="cls-2" d="M600.23,942.5c6.8-6.06,13.61-12.11,20.41-18.17-.39-.51-.77-1.01-1.16-1.52-9.9,7.4-19.79,14.79-28.1,21,47.15-55.8,120.08-64.06,162.41-81.91-37.85,18.77-96.4,47.82-154.96,76.87.47,1.24.94,2.49,1.4,3.73Z"/>
    <path class="cls-2" d="M638.61,417.03c-90.32-37.99-180.47-38.01-270.46,1.96l-1.36-7.56c43.71-10.66,87.27-22.05,131.21-31.65,20.21-4.41,127.45,24.82,140.61,37.24Z"/>
    <path class="cls-2" d="M415.08,939.98c-8.62-6.44-17.23-12.88-25.85-19.31-.35.4-.7.8-1.05,1.2,8.32,7.59,16.64,15.19,24.96,22.78.21-.66.41-1.33.62-1.99-50.18-28.62-100.35-57.23-143.16-81.64,46.2,17.93,102.52,34.99,144.48,78.97Z"/>
    <path class="cls-2" d="M577.51,319.05c-66.61,2.67-134.22-7.29-200.25,11.72,66.07-19.37,132.72-28.13,200.25-11.72Z"/>
    <path class="cls-2" d="M800.35,416.68v90.56c-1.51,0-3.01.01-4.52.02,0-43.91,0-87.83.05-131.74,0-.95.74-1.9,1.13-2.85.89,1.26,1.78,2.51,1.97,2.78,2.84-2.28,5.9-4.74,8.96-7.2.31,3.62.89,7.24.9,10.86.06,45.28.04,90.55-2.95,135.8-1.59-32.75-3.17-65.51-4.76-98.26-.26.01-.52.02-.77.04Z"/>
    <path class="cls-2" d="M812.34,337.08c1.6-1.15,3.77-3.65,4.71-3.25,24.39,10.38,48.57,21.28,72.99,31.6,10.55,4.46,21.76,9.3,30.25-4.03.33-.51,1.37-.57,2.08-.85.27,1.36,1.03,3.78.73,3.92-7.14,3.37-15.29,10.38-21.45,8.95-20.45-4.75-40.12-12.79-60.25-19.06-7.5-2.34-15.89-2.21-22.97-5.3-3.18-1.39-4.11-7.92-6.06-12.11-.4-.02-.53-.02-.41.03.16.06.29.09.39.09Z"/>
    <path class="cls-2" d="M691.45,375.76c-1.98-1.11-3.96-2.23-5.94-3.34,1.44-.56,2.88-1.13,4.33-1.69,19.16-7.38,38.31-14.8,57.49-22.13,12.32-4.71,24.63-9.46,37.08-13.79,2.19-.76,5.08.45,7.64.76-1.82,4.43-2.72,11.95-5.6,12.8-31.53,9.35-63.36,17.66-95.11,26.27-.12.03-.29.29-.26.39.07.26.24.49.36.73,0,0,0,0,0,0Z"/>
    <path class="cls-2" d="M654.29,194.58c-12.42-3.19-25.59-4.73-37.11-9.93-23.88-10.77-46.46-24.44-70.36-35.15-34.94-15.67-70.53-18.55-106.92,1.25,22.16-20.78,73.84-24.88,107.51-7.89,23.68,11.95,45.76,27.07,69.47,38.94,11.48,5.75,25.06,7.29,37.69,10.74-.09.68-.18,1.36-.28,2.03Z"/>
    <path class="cls-2" d="M350.61,597.59c-14.74,3.51-27.71-.18-33.85-14.27-8.58-19.72,8.8-24.76,21.05-32.59-3.31-.67-6.52-1.32-13.07-2.65,6.69,0,9.94,0,13.2,0,21.24.01,32.57-18.69,22.54-37.35-4.87-9.06-9.96-18.01-12.51-28.66,7.06,8.83,15.33,16.96,20.9,26.64,9.27,16.1,3.07,31.46-13.84,39.01-7.82,3.49-16.62,6.12-22.81,11.59-5.58,4.94-12.52,14.39-11.06,19.73,1.84,6.75,11.22,11.85,18.06,16.64,2.85,1.99,7.54,1.35,11.4,1.91Z"/>
    <path class="cls-2" d="M812.35,336.96c-.96,2.07-1.92,4.13-2.88,6.2-2.79-6.04-16.62,7.13-14.57-9.53,2.77-22.54,2.59-45.45,3.87-68.18.07-1.16,1.91-2.22,2.93-3.32,1.02,1.15,2.84,2.25,2.93,3.47,1.42,18.93,2.42,37.9,3.99,56.82.41,4.94,2.43,9.75,3.71,14.65,0,.02.02-.1.02-.1Z"/>
    <path class="cls-2" d="M455.59,63.68c-32.54,16.36-49.06,43.58-58.91,79.9.65-9.84,1.09-16.38,1.74-26.18-2.77,10.23-4.7,17.32-6.63,24.42-.68-.07-1.35-.14-2.03-.21.75-8.79,1.5-17.57,2.38-27.93-1.56,5.32-2.7,9.2-3.71,12.67-5.16-17.44,38.97-59.52,67.16-62.67Z"/>
    <path class="cls-2" d="M406.73,379.09c58.07-27.78,127.05-29.82,185.43-3.25-23.29-3.15-58.17-11.98-92.89-11.39-34.56.58-68.95,10.61-92.54,14.64Z"/>
    <path class="cls-2" d="M338.64,234.74c9.65-5.93,19.3-11.87,28.95-17.8-.25-.41-.5-.83-.75-1.24-10.59,4.05-21.18,8.09-33,12.61,11.49-6.52,21.63-12.28,35.53-20.16-14.26,4.64-24.2,7.87-34.14,11.11-.14-.49-.27-.98-.41-1.47,21.95-11.36,43.81-22.93,65.98-33.86,3.17-1.56,7.87,0,11.86.1-3.15,1.42-6.78,2.24-9.37,4.35-14.71,11.99-28.86,24.67-43.85,36.28-6.01,4.66-13.67,7.21-20.57,10.72-.07-.21-.15-.42-.22-.63Z"/>
    <path class="cls-2" d="M774.1,874.88c-34.8,19.31-85.9,47.65-128.31,71.19,33.67-38.86,92.4-53.84,128.31-71.19Z"/>
    <path class="cls-2" d="M212.83,432.45c-14.5,0-29.01.03-43.51-.07-1.09,0-2.18-.99-3.27-1.52,1.11-.71,2.18-1.98,3.32-2.04,8.56-.48,17.14-.68,25.71-1.11,1.14-.06,2.25-.87,3.38-1.33-.96-.79-1.87-1.67-2.9-2.35-1.55-1.03-3.18-1.92-4.78-2.87,1.94-.61,3.87-1.67,5.83-1.74,8.08-.26,16.47-1.54,24.15.19,4.92,1.11,8.8,6.84,13.14,10.5-.93.75-1.83,2.12-2.78,2.15-6.09.2-12.19.1-18.29.1,0,.03,0,.06,0,.09Z"/>
    <path class="cls-2" d="M432.54,333.32c38.11-12.05,89.68-16.12,137.22,0h-137.22Z"/>
    <path class="cls-2" d="M251.46,873.34c41,25.15,82.01,50.3,123.01,75.45-.68,1.12-1.37,2.24-2.05,3.36-40.87-25.37-81.74-50.75-122.61-76.12.55-.9,1.1-1.79,1.65-2.69Z"/>
    <path class="cls-2" d="M348.41,178c2.6-.92,7.84-2.77,13.07-4.63-.07-.55-.15-1.09-.22-1.64-6.63.88-13.26,1.75-19.57,2.59,13.05-12.94,58.5-12.11,67.41-.93-19.87,1.51-41.51,3.15-60.69,4.61Z"/>
    <path class="cls-2" d="M344.21,387.17c-8.62,7.02-23.26.12-28.27-12.02-11.14-27.03,9.64-60.28,42.34-65.71-25.72,12.57-46.57,27.31-40.39,59.53,2.62,13.64,10.97,20.55,26.32,18.2Z"/>
    <path class="cls-2" d="M410.47,83.83c-9.35,12.11-19.42,25.15-29.27,37.91,3.36-7.05,7.06-14.81,10.76-22.56l-1.58-1.04c-6.43,10.83-12.86,21.67-17.89,30.15-1.17-19.14,16.37-40.55,37.98-44.45Z"/>
    <path class="cls-2" d="M906.12,378.05c8.55,7.03,18.65,14.58,2.82,23.93-.55.32,5.45,11.65,8.33,17.88.77,1.67,1.28,3.45,1.91,5.19-2.29-.7-5.92-.73-6.67-2.21-5.28-10.46-10.3-21.09-14.58-31.98-.89-2.25,1.6-5.86,2.74-8.77.06-.14,2.11.5,3.23.78-.78,1.62-2.31,3.31-2.18,4.85.24,2.7.95,5.79,2.61,7.73.73.86,5.95-.24,6.21-1.22.66-2.47-.01-5.49-.79-8.09-.83-2.8-2.39-5.39-3.63-8.08Z"/>
    <path class="cls-2" d="M804.05,223.82c.51,9.92,1.02,19.85,1.52,29.77-4.12-.81-8.24-1.61-12.36-2.42,2.13-9.23,4.25-18.46,6.38-27.69,1.49.11,2.97.22,4.46.34Z"/>
    <path class="cls-2" d="M803.75,875.02c-33.74,20.65-67.48,41.31-101.21,61.96-.52-.86-1.04-1.73-1.57-2.59,33.83-20.37,67.65-40.74,101.48-61.1.43.58.87,1.15,1.3,1.73Z"/>
    <path class="cls-2" d="M402.27,80.65c-11.81,13.92-26.36,31.07-40.9,48.21,1.13,1.14,2.26,2.29,3.39,3.43,1.9-7.26,3.79-14.52,5.69-21.79-.4-.18-.79-.36-1.19-.54-2.84,6.3-5.68,12.6-8.22,18.24-2.03-17.12,29.25-48.28,41.23-47.56Z"/>
    <path class="cls-2" d="M689.7,386.45c.58-3.56,1.17-7.12,1.75-10.69,0,0,0,0,0,0,1.87,1.61,3.84,3.14,5.6,4.86,3.4,3.32,9.13,6.62,9.32,10.16.18,3.48-5.16,10-8.38,10.19-3.71.23-7.47-5.58-11.73-7.72-3.98-2-8.59-2.91-13.02-3.75-2.88-.55-5.94-.1-8.93-1.85,8.52-.47,17.05-.93,25.57-1.4,1.14,1.41,2.23,2.85,3.31,4.31.83,1.12,2.06,1.72,3.49,1.16.84-.33,1.31-1.11,1.08-2-.41-1.55-1.71-1.98-3.1-1.92-1.83.09-3.66.38-4.97-1.37Z"/>
    <path class="cls-2" d="M681.04,440.05c-.24-3-.51-6.25-.77-9.5,1.84,2.25,3.95,4.35,5.36,6.84.41.72-1.28,2.52-1.81,3.9-4.27,11.22-8.45,22.47-12.78,33.67-.61,1.57-1.89,2.88-2.86,4.31-1.04-2.33-3.36-4.97-2.88-6.94,1.32-5.47,3.65-10.73,5.86-15.96,2.34-5.51,4.94-10.92,7.62-16.27.2-.4,1.91-.05,2.25-.05Z"/>
    <path class="cls-2" d="M545.41,377.02h-80.42v-2.59h80.51c-.03.86-.06,1.72-.08,2.59Z"/>
    <path class="cls-2" d="M647.74,367.44c1.72,7.2,1.27,15.87,5.39,20.23,7.05,7.47,16.92,12.29,25.68,18.12,1.35.9,3.11,1.19,4.68,1.76-1.54.78-2.99,1.91-4.62,2.29-18.55,4.31-35.65-18.65-31.13-42.4Z"/>
    <path class="cls-2" d="M155.75,747.53c-2.45,1.57-3.71,2.95-4.37,2.71-11.61-4.22-23.17-8.58-34.68-13.07-1.34-.52-2.31-2-3.45-3.04,1.54-.08,3.17-.52,4.62-.19,10.43,2.43,20.88,4.83,31.2,7.71,2.13.6,3.71,3.18,6.69,5.88Z"/>
    <path class="cls-2" d="M528.82,346.27h-55.52c0-1,0-2,0-3h55.76c-.08,1-.16,2-.23,3Z"/>
    <path class="cls-2" d="M183.95,326.25h44.68c0,.98-.01,1.95-.02,2.93h-44.67c0-.98,0-1.95,0-2.93Z"/>
    <path class="cls-2" d="M226.8,319.56c-12.82-.7-25.63-1.4-38.45-2.1.02-.95.04-1.89.07-2.84h38.63c-.08,1.65-.16,3.29-.25,4.94Z"/>
    <path class="cls-2" d="M227.3,308.1c-15.37-.7-30.75-1.39-46.12-2.09,0-.79,0-1.57.01-2.36h46.17c-.02,1.48-.04,2.97-.07,4.45Z"/>
    <path class="cls-2" d="M226.44,296.46h-45.53v-2.88h45.64l-.11,2.88Z"/>
    <path class="cls-2" d="M181.97,337.63h45.84c0,1.04,0,2.07,0,3.11h-45.84c0-1.04,0-2.07,0-3.11Z"/>
    <path class="cls-2" d="M864.88,496.32c3.39-5.02,7.21-10.51,10.79-16.15.53-.83-.25-2.39-.09-3.57.3-2.21.85-4.39,1.3-6.58,1.78,1.11,5.18,3.05,5.11,3.19-2.21,4.26-5.24,8.14-7.12,12.51-1.63,3.79-1.8,8.18-3.05,12.18-.82,2.63-2.41,5.03-3.65,7.53-.92-2.55-1.84-5.1-3.29-9.12Z"/>
    <path class="cls-2" d="M734.13,500.99c.87-2.66,1.72-5.28,2.57-7.9.82.34,2.36.68,2.35,1-.04,2.7-.38,5.4-.61,8.1-.08.91-.1,1.83-.14,2.74.78-.24,1.56-.51,2.36-.7.44-.11,1.3-.21,1.32-.12,1.5,5.21,2.9,10.46,4.41,15.67.42,1.46.95,2.97,1.81,4.19.74,1.06,2.78,1.67,2.87,2.62.13,1.25-.77,3.09-1.82,3.81-.68.47-3.23-.26-3.56-1.04-3.99-9.37-7.72-18.84-11.55-28.37Z"/>
    <path class="cls-2" d="M474.81,335.5h58.24c0,.91,0,1.81,0,2.72h-58.24c0-.91,0-1.81,0-2.72Z"/>
    <path class="cls-2" d="M228.16,363.39c-13.77-.71-27.55-1.42-41.32-2.14l.06-2.18h41.34c-.03,1.44-.06,2.88-.09,4.32Z"/>
    <path class="cls-2" d="M185.1,282.6h40.24l-.02,3.03h-40.25c0-1.01.01-2.02.02-3.03Z"/>
    <path class="cls-2" d="M226.66,371.85c-11.6,0-23.2.03-34.8-.06-.93,0-1.85-.9-2.77-1.38.51-.55,1.01-1.59,1.52-1.59,12.08-.09,24.16-.07,36.24-.07-.06,1.04-.13,2.07-.19,3.11Z"/>
    <path class="cls-2" d="M182.1,348.69h46.46c-.02,1.37-.04,2.74-.06,4.11-15.47-.69-30.94-1.38-46.41-2.07,0-.68,0-1.36.01-2.05Z"/>
    <path class="cls-2" d="M200.26,193.77c-6.89-1.06-13.22-2.03-19.54-2.99,5.95-.68,11.92-1.97,17.86-1.9,6.93.09,13.84,1.37,20.75,2.13-6.46.94-12.93,1.87-19.07,2.76Z"/>
    <path class="cls-2" d="M187.44,379.8h40.11c0,1.03,0,2.06,0,3.08h-40.05c-.02-1.03-.03-2.06-.05-3.08Z"/>
    <path class="cls-2" d="M185.08,271.32c12.43.59,24.87,1.12,37.3,1.87,1.11.07,2.14,1.57,3.2,2.4-1.21.25-2.42.71-3.63.71-12.33.05-24.65.03-36.98.03.04-1.67.07-3.35.11-5.02Z"/>
    <path class="cls-2" d="M663.53,463.23c-4.13-5.52-8.27-11.04-12.4-16.57.38-.3.76-.6,1.14-.89,2.42,2.29,4.84,4.57,7.33,6.92-3.41-6.01-6.74-11.89-10.08-17.76,1.02-.56,2.05-1.12,3.07-1.68,5.1,9.14,10.21,18.28,15.31,27.42-1.46.85-2.92,1.71-4.37,2.56Z"/>
    <path class="cls-2" d="M614.06,90.95c12.6,11.07,25.19,22.13,37.79,33.2-.52.54-1.05,1.07-1.57,1.61-12.93-10.66-25.86-21.32-38.79-31.98.86-.94,1.72-1.88,2.58-2.82Z"/>
    <path class="cls-2" d="M248.95,893.36c19.42,13.2,38.83,26.4,58.25,39.59-.45.67-.9,1.33-1.35,2-19.38-13.25-38.77-26.49-58.15-39.74.42-.62.83-1.23,1.25-1.85Z"/>
    <path class="cls-2" d="M472.73,351.29h56.96v2.26h-56.96c0-.75,0-1.51,0-2.26Z"/>
    <path class="cls-2" d="M921.83,435.97c1.85,2.9,3.97,5.66,5.43,8.74.73,1.54.32,3.65.31,5.51,0,.65-.67,1.49-.43,1.9.45.79,1.29,1.38,2.04,1.96,1.15.89,2.35,1.71,3.53,2.56-.97,1.11-2.33,3.3-2.82,3.12-1.49-.54-3.26-1.76-3.82-3.16-2.89-7.22-5.43-14.57-8.09-21.88-.87-2.39-1.71-4.78-2.57-7.17,1.57-.07,3.99-.8,4.56-.08,1.69,2.16,2.66,4.89,3.92,7.39-.69.37-1.37.74-2.06,1.1Z"/>
    <path class="cls-2" d="M655.39,331.23c8.5,9.33,17.01,18.64,25.46,28.02.25.28-.14,1.13-.24,1.71-2.23-.65-5.29-.59-6.54-2.07-7.09-8.4-13.74-17.16-20.55-25.79.62-.62,1.24-1.25,1.86-1.87Z"/>
    <path class="cls-2" d="M188.88,262.47c10.7,0,21.4-.08,32.1.12,1.13.02,2.24,1.65,3.35,2.54-1.24.4-2.47,1.15-3.71,1.16-10.58.09-21.17.05-31.75.05,0-1.29,0-2.58.01-3.86Z"/>
    <path class="cls-2" d="M322.32,361.28c9.37-11.03,18.75-22.05,28.12-33.08.73.63,1.46,1.27,2.19,1.9-9.08,11.29-18.15,22.59-27.23,33.88-1.03-.9-2.06-1.8-3.09-2.71Z"/>
    <path class="cls-2" d="M857.23,526.49c1.78-8.8,2.97-15.03,4.37-21.22.2-.9,1.32-1.73,2.22-2.27.29-.18,1.69.58,1.75,1.02.46,3.55,1.59,7.33.83,10.65-1.02,4.44-3.57,8.52-5.43,12.76-.76,1.74-1.43,3.52-2.14,5.29-1.76-1.77-3.53-3.54-5.29-5.32,1.55-.4,3.11-.79,4.66-1.19.85-.22,1.69-.46-.97.26Z"/>
    <path class="cls-2" d="M195.14,229.95c3.25-.66,6.51-1.31,14.08-2.84h-15.62c.27-1.62.54-3.25.8-4.87,8.1,1.82,16.19,3.64,24.29,5.46-.59.95-1.11,2.68-1.78,2.74-7.14.63-14.31,1-21.47,1.45-.1-.65-.19-1.29-.29-1.94Z"/>
    <path class="cls-2" d="M227.4,401.96h-47.58c0-.62-.01-1.25-.02-1.87h47.71c-.04.62-.07,1.25-.11,1.87Z"/>
    <path class="cls-2" d="M186.71,390.29h40.25c-.01.68-.02,1.37-.03,2.05h-40.25c0-.68.02-1.37.03-2.05Z"/>
    <path class="cls-2" d="M642.58,338.93c10.64,9.97,21.29,19.92,31.88,29.95.37.35.09,1.41.11,2.13-1.06-.25-2.46-.14-3.15-.79-10.31-9.7-20.53-19.49-30.78-29.26.64-.67,1.29-1.35,1.93-2.02Z"/>
    <path class="cls-2" d="M550.6,736.95c15.41-16.94,30.81-33.87,46.22-50.81.47.42.95.85,1.42,1.27-15.31,17-30.63,33.99-45.94,50.99-.56-.48-1.13-.97-1.69-1.45Z"/>
    <path class="cls-2" d="M935.62,483.67c-.3-4.33-.62-8.99-.94-13.66,1.97,3.95,4.08,7.84,5.87,11.87,1.43,3.23,2.64,6.58,3.52,9.99.14.56-1.89,1.68-2.92,2.54-1.72-3.34-3.44-6.69-5.53-10.74Z"/>
    <path class="cls-2" d="M112.6,741.27c12.93,4.16,25.88,8.24,38.73,12.63,1.13.39,1.59,2.77,2.36,4.22-1.35.02-2.87.46-4.02-.01-12.54-5.17-25.01-10.47-37.51-15.74.14-.36.29-.73.43-1.09Z"/>
    <path class="cls-2" d="M730.54,472.27c1.86,8.66,3.2,14.35,4.2,20.1.15.85-1.29,1.97-2,2.96-.64-.46-1.67-.79-1.87-1.4-2.18-6.63-4.46-13.25-6.11-20.02-.3-1.22,2.14-3.12,3.32-4.7,1.43,1.77,2.85,3.54,2.45,3.05Z"/>
    <path class="cls-2" d="M222.52,256.51h-32.34c0-.98,0-1.95,0-2.93h32.34v2.93Z"/>
    <path class="cls-2" d="M362.96,336.56c-9.66,11.7-19.33,23.4-28.99,35.1-.86-.71-1.72-1.42-2.59-2.14,9.91-11.5,19.82-22.99,29.73-34.49.62.51,1.23,1.02,1.85,1.52Z"/>
    <path class="cls-2" d="M358.63,428.41c-1.75,3.19-5.47,10.3-9.65,17.13-.51.84-3.5.17-5.34.2.04-1.83-.68-4.53.25-5.35,5.71-5.03,11.8-9.64,14.74-11.98Z"/>
    <path class="cls-2" d="M905.46,539.89c0-12.56-.03-23.35.07-34.15,0-.81.96-1.61,1.47-2.42.72.55,2.09,1.12,2.07,1.65-.31,8.87-.9,17.72-1.14,26.59-.05,2,1.34,4.02,1.42,6.05.06,1.64-.86,3.32-1.35,4.98-1.22-1.3-2.43-2.59-2.54-2.71Z"/>
    <path class="cls-2" d="M188.28,244.44c10.36,0,20.72-.05,31.07.08.88.01,1.75,1.18,2.63,1.82-1.04.54-2.08,1.52-3.13,1.53-10.17.12-20.33.07-30.5.07-.02-1.17-.05-2.34-.07-3.51Z"/>
    <path class="cls-2" d="M189.88,235.62c9.06,0,18.12-.06,27.17.09,1.07.02,2.13,1.21,3.19,1.86-1.17.56-2.34,1.59-3.52,1.61-8.94.14-17.88.07-26.83.07,0-1.21-.02-2.42-.02-3.63Z"/>
    <path class="cls-2" d="M640.81,289.39c13.84-2.14,27.69-4.28,41.53-6.42.12.77.25,1.53.37,2.3-13.84,2.26-27.68,4.53-41.52,6.79-.13-.89-.26-1.78-.38-2.67Z"/>
    <path class="cls-2" d="M335.29,422.65c7.07-4.97,16.62-11.68,27.12-19.05-6.28,6.6-11.59,13.68-18.42,18.67-3.1,2.26-9.22.38-8.7.38Z"/>
    <path class="cls-2" d="M227.56,411.03h-38.24c0-.57,0-1.13,0-1.7h38.2c.01.57.03,1.13.04,1.7Z"/>
    <path class="cls-2" d="M430.14,621.86c-4.9-19.64-9.8-39.29-14.7-58.93.56-.14,1.12-.28,1.68-.43,4.75,19.63,9.51,39.25,14.26,58.88-.41.16-.83.32-1.24.48Z"/>
    <path class="cls-2" d="M192.57,215.2c7.76.6,15.52,1.16,23.27,1.9.66.06,1.2,1.38,1.8,2.12-.7.28-1.41.83-2.1.8-7.73-.43-15.45-.96-23.18-1.46.07-1.12.14-2.24.21-3.35Z"/>
    <path class="cls-2" d="M648.53,406.92c8.17,6.92,16.33,13.84,24.5,20.76-.53.62-1.07,1.23-1.6,1.84-8.15-7.02-16.3-14.04-24.45-21.05.52-.52,1.03-1.03,1.55-1.55Z"/>
    <path class="cls-2" d="M905.77,402.92c-1.28,6.33-2.52,12.66-3.9,18.97-.11.52-1.18.84-1.8,1.25-.95-1.83-3.08-4.02-2.65-5.43,1.62-5.3,4.08-10.35,6.22-15.49.71.24,1.42.47,2.14.71Z"/>
    <path class="cls-2" d="M194.57,206.94c6.33.4,12.66.78,18.97,1.33.24.02.33,1.79.49,2.74h-19.74l.28-4.07Z"/>
    <path class="cls-2" d="M347.4,453.41c4.21-6.4,8.42-12.8,12.64-19.2.64.37,1.29.74,1.93,1.11-3.85,6.61-7.7,13.22-11.54,19.83-1.01-.58-2.01-1.16-3.02-1.75Z"/>
    <path class="cls-2" d="M580.47,614.64c.82-3.81,1.6-7.63,2.46-11.42,2.85-12.52,5.73-25.03,9.58-37.32-3.57,16.3-7.13,32.6-10.7,48.9-.45-.05-.9-.11-1.34-.16Z"/>
    <path class="cls-2" d="M339.63,506.19c-3.84-5.37-7.74-10.69-11.47-16.13-.72-1.05-.77-2.56-1.13-3.86,1.42.39,3.4.31,4.16,1.23,4.12,5,7.94,10.25,11.87,15.42-1.14,1.12-2.29,2.23-3.43,3.35Z"/>
    <path class="cls-2" d="M655.79,514.56c-2.42,3.1-4.39,5.63-6.36,8.15-1.07-1.07-3.26-2.56-3.04-3.14,1.07-2.88,2.79-5.52,4.28-8.25,1.56.99,3.12,1.97,5.12,3.24Z"/>
    <path class="cls-2" d="M124.4,756.97c8.88,2.83,17.77,5.6,26.6,8.57.9.3,1.42,1.75,2.11,2.67-1.05.07-2.25.5-3.13.14-8.65-3.46-17.25-7.06-25.86-10.62.09-.26.18-.51.28-.77Z"/>
    <path class="cls-2" d="M581.96,76.04c-9.64-4.17-19.29-8.35-28.93-12.52.28-.63.55-1.26.83-1.89,9.6,4.28,19.19,8.56,28.79,12.84l-.69,1.57Z"/>
    <path class="cls-2" d="M696.33,407.37c-1,2.87-1.94,5.61-2.89,8.34-1.55-1.87-4.72-4.26-4.32-5.51.84-2.64,3.55-4.69,5.49-6.99.54,1.3,1.08,2.61,1.72,4.16Z"/>
    <path class="cls-2" d="M803.21,344.57c2.15,1.72,3.72,2.98,5.3,4.25-1.66,1.63-3.3,4.51-4.99,4.54-1.69.03-3.43-2.79-5.15-4.36,1.42-1.29,2.83-2.59,4.84-4.42Z"/>
    <path class="cls-2" d="M945.77,509.23c1.52-1.77,2.76-3.22,4-4.67,1.31,2.08,3.52,4.11,3.64,6.25.09,1.77-2.29,3.67-3.58,5.52-1.24-2.17-2.48-4.34-4.05-7.09Z"/>
    <path class="cls-2" d="M950.44,500.05c-1.59,1.84-2.73,3.17-3.88,4.51-1.67-1.94-3.93-3.68-4.73-5.93-.32-.9,2.58-2.94,4.02-4.47,1.41,1.81,2.82,3.61,4.59,5.89Z"/>
    <path class="cls-2" d="M965.05,539.84c-2.43,1.06-4.75,2.71-5.35,2.22-1.55-1.26-3.39-3.61-3.15-5.23.25-1.67,2.82-2.99,4.37-4.47,1.17,2.12,2.34,4.25,4.13,7.48Z"/>
    <path class="cls-2" d="M759.47,551.68c-3.28-1.77-5.84-2.38-6.06-3.45-.33-1.64.97-3.61,1.58-5.43,1.3,2.59,2.61,5.18,4.47,8.88Z"/>
    <path class="cls-2" d="M895.33,420.62c2.02,2.55,4.09,4.04,3.89,5.13-.47,2.56-2.01,4.91-3.13,7.35-1.14-1.58-3.13-3.11-3.22-4.75-.12-2.11,1.28-4.3,2.46-7.73Z"/>
    <path class="cls-2" d="M319.29,242.82c-5.3-6-10.6-12-15.9-18,.45-.39.9-.79,1.35-1.18,5.43,5.89,10.85,11.77,16.28,17.66-.58.51-1.15,1.02-1.73,1.53Z"/>
    <path class="cls-2" d="M707.11,409.17c-1.97,2.3-3.2,3.72-4.42,5.15-1.33-2.94-2.74-5.84-3.89-8.85-.17-.44.94-1.38,1.46-2.08,2.12,1.78,4.23,3.57,6.85,5.78Z"/>
    <path class="cls-2" d="M751.27,541.73c-2.07-2.6-3.58-4.45-4.96-6.4-.06-.08,1.5-1.65,1.71-1.53,2.51,1.49,4.9,3.18,7.32,4.81-.94.72-1.88,1.44-4.08,3.12Z"/>
    <path class="cls-2" d="M703.14,419.31c1.47-2.34,2.69-4.28,3.91-6.23,1.09,1.94,3,3.86,3.05,5.83.05,1.95-1.76,3.95-2.76,5.93-1.31-1.73-2.62-3.45-4.2-5.53Z"/>
    <path class="cls-2" d="M523.49,369.56h-34.16v-1.17h34.18c0,.39-.01.78-.02,1.17Z"/>
    <path class="cls-2" d="M659.52,505.49c-1.54,2.47-2.66,4.26-3.78,6.05-1.2-1.74-3.17-3.4-3.33-5.23-.12-1.38,2.09-2.96,3.26-4.45,1.14,1.07,2.28,2.15,3.86,3.63Z"/>
    <path class="cls-1" d="M388.29,760.51c-36.72-9.29-73.44-18.59-110.16-27.88.28-1.09.55-2.18.83-3.27,36.7,9.1,73.4,18.21,110.1,27.31-.26,1.28-.52,2.56-.77,3.84Z"/>
    <path class="cls-1" d="M452.05,755.33c-18.67-20.09-37.34-40.18-56.01-60.26.59-.61,1.18-1.22,1.77-1.83,7.7,8.69,15.4,17.38,23.1,26.06l.79-.57c-5.75-8.99-11.5-17.98-15.37-24.03,15.01,17.26,32.19,37.03,49.37,56.79l-3.65,3.84Z"/>
    <path class="cls-1" d="M296.03,741.62c29.3,7.44,58.6,14.88,87.9,22.32l-.82,3.32c-29.36-7.2-58.72-14.4-88.09-21.59l1-4.05Z"/>
    <path class="cls-1" d="M374.79,773.86c-22.35-5.57-44.69-11.13-67.04-16.7.3-1.17.6-2.35.9-3.52,22.23,5.81,44.45,11.62,66.68,17.44-.18.93-.36,1.85-.54,2.78Z"/>
    <path class="cls-1" d="M302.93,731.13c24.67,5.54,49.33,11.09,74,16.63-.16.72-.32,1.44-.49,2.16-24.59-5.57-49.19-11.14-73.78-16.71.09-.69.18-1.39.27-2.08Z"/>
    <path class="cls-1" d="M431.07,742.64c-13.98-11.73-27.97-23.45-41.95-35.18.87-.87,1.75-1.73,2.62-2.6,13.73,11.98,27.46,23.97,41.19,35.95-.62.61-1.24,1.22-1.86,1.83Z"/>
    <path class="cls-1" d="M494.67,441.54c-2.38-1.47-4.75-2.94-4.82-2.98h28.79c1.32-1.93.56-.66-.36.48-1.02,1.26-2.2,2.39-4.91,5.28,8.13-3.31,14.12-5.75,20.96-8.54,4.74,15.65-10.11,25.05-19.6,35.51-3.67,4.04-16.4,5.78-20.2,2.68-12.11-9.87-23.76-21.72-20.17-37.59,6.64,2.48,12.69,4.75,18.75,7.01.52-.62,1.04-1.23,1.57-1.85Z"/>
    <path class="cls-1" d="M541.85,496.61c-26.95,0-54.75.01-82.56-.07-.73,0-2.13-1.52-2.09-1.58,1.05-1.6,1.94-3.74,3.49-4.51,6.37-3.15,12.76-6.49,19.52-8.56,5.61-1.72,11.82-1.36,17.6-2.62,16.78-3.68,31.4,1.49,45.3,10.25,2.76,1.74,5.72,3.17,8.59,4.74-2.95.7-5.91,1.41-9.85,2.34Z"/>
    <path class="cls-1" d="M502.76,526.48c-7.32-2.63-15.63-5.56-23.87-8.65-.88-.33-2.19-1.96-2.01-2.29,1.27-2.36,2.8-6.42,4.4-6.49,13.66-.62,27.39-.98,41.03-.3,3.49.17,6.79,4.32,10.17,6.64-3.75,2.26-7.28,5.17-11.32,6.63-5.36,1.94-11.12,2.76-18.4,4.45Z"/>
    <path class="cls-1" d="M511.95,156c19.41,11.76,38.17,23.39,57.19,34.58,19.93,11.72,39.73,23.79,60.42,34.05,6.14,3.04,15.06.47,20.45.47-9.4,6.4-35.17,3.17-52.96-9.16-28.23-19.57-56.18-39.53-85.11-59.93Z"/>
    <path class="cls-1" d="M583.82,196.09c16.71,7.38,33.43,14.76,50.14,22.14-.33.75-.66,1.49-.99,2.24-16.76-7.37-33.53-14.75-50.29-22.12.38-.75.76-1.51,1.14-2.26Z"/>
    <path class="cls-1" d="M556.7,251.27c19.06,8.78,38.11,17.56,57.17,26.35-.27.62-.53,1.24-.8,1.85-19.21-8.6-38.42-17.2-57.62-25.8.42-.8.84-1.6,1.26-2.4Z"/>
    <path class="cls-1" d="M976.77,574.14c-7.99,24.91-41.61,43.22-78.43,41.47-29.61-1.4-58.97-21.01-63.44-41.07,47.18,12.95,94.63,14.45,141.87-.4Z"/>
    <path class="cls-1" d="M945.45,584.28c-33.82-2.64-67.64-5.27-101.45-7.91.04-.81.08-1.61.12-2.42,33.75,3.09,67.49,6.18,101.24,9.27.03.35.06.71.1,1.06Z"/>
    <path class="cls-1" d="M701.35,615.55c-36.03.18-59.83-10.23-75.17-36.37-.92-1.58-1.05-3.62-1.54-5.45,1.71.36,3.45.61,5.13,1.09,39.98,11.45,80.42,10.94,121.07,4.67,2.24-.34,4.39-1.4,6.5-2.31,3.38-1.46,6.69-3.08,10.03-4.64-1.78,3.96-2.99,8.31-5.42,11.81-16.28,23.48-40.53,30.19-60.59,31.2Z"/>
    <path class="cls-1" d="M671.56,578.57h67.04c-.07,1.38-.14,2.76-.21,4.14-22.24-1.41-44.48-2.82-66.72-4.23,0,0-.11.09-.11.09Z"/>
    <path class="cls-1" d="M631.27,571.77c13.41,2.28,26.83,4.56,40.27,6.82.02-.02.09-.07.11-.09-13.44-2.26-26.91-4.51-40.38-6.75,0,0,0,.02,0,.02Z"/>
    <path class="cls-1" d="M192.58,111.2c-17.39,9.15-23.34,22.27-16.81,39.26,4.97,12.92,15.01,21.72,28.72,17.08,7.97-2.7,16.52-11.42,19.28-19.36,2.25-6.48-1.37-18.64-6.71-23.07-5.35-4.44-16.05-2.53-24.43-3.03-.87-.05-1.89,2.49-2.84,3.83,1.3-.26,2.6-.63,3.91-.75,1.49-.14,3-.04,4.49-.05-.34.79-.81,1.56-1,2.39-.58,2.54-2.21,6.74-1.35,7.36,3.45,2.46,7.6,4.39,11.73,5.16,1.04.19,3.02-4.63,9.57-15.3,1.48,5.31,4.09,10.09,3.77,14.67-.46,6.66-.98,15.69-5.21,19.13-5.77,4.69-19.76,9.14-21.96,6.59-7.85-9.14-15.78-21.05-16.52-32.38-.43-6.5,13.39-20.02,19.99-19.53,10.81.79,25.98,8.15,30.01,16.98,4.18,9.18.76,25.78-5.54,34.82-8.64,12.4-24.68,14.37-38.43,5.88-13.81-8.53-20.3-22.72-14.71-37.99,3.53-9.64,12.99-17.12,19.79-25.56,1.41,1.29,2.82,2.59,4.23,3.88Z"/>
    <path class="cls-1" d="M73.06,479.78c-4.26-3.79-9.26-7.15-12.57-11.74-1.23-1.71,1.5-6.29,2.43-9.56,1.77.77,3.48,1.81,5.33,2.24,5.29,1.24,10.64,2.24,15.96,3.33.7.14,1.4.25,2.1.38-1.21,3.5-1.79,7.46-3.85,10.36-1.49,2.09-4.97,2.76-9.4,4.99Z"/>
    <path class="cls-1" d="M689.7,386.45c3.81.13,7.66.06,11.39.68.37.06.99,5.33-.15,6.34-1.77,1.58-6.49,2.87-7.23,1.99-2.04-2.43-2.66-6.04-3.84-9.19,0,0-.18.18-.18.18Z"/>
    <path class="cls-2" d="M934.46,589.98h-47.9c0-.24,0-.48,0-.72h47.9c0,.24,0,.48,0,.72Z"/>
    <path class="cls-2" d="M729.7,605.46c7.79-4.99,15.57-9.97,23.36-14.96.32.51.64,1.02.96,1.53-7.86,4.86-15.72,9.73-23.59,14.59-.24-.39-.49-.77-.73-1.16Z"/>
    <path class="cls-2" d="M736.79,588.53c-9.4.46-18.79.92-28.19,1.38-.02-.59-.05-1.18-.07-1.77h28.19c.02.13.05.26.07.39Z"/>
  </g>
</svg>