<?xml version="1.0" encoding="UTF-8"?>
<svg xmlns="http://www.w3.org/2000/svg" viewBox="0 0 20 20">
  <defs>
    <style>
      .cls-1 {
        stroke-width: 0px;
      }

      .cls-1, .cls-2 {
        fill: none;
      }

      .cls-2 {
        stroke: #000;
        stroke-linecap: round;
        stroke-linejoin: round;
        stroke-width: .5px;
      }
    </style>
  </defs>
  <g id="Layer_3" data-name="Layer 3">
    <rect class="cls-1" width="20" height="20"/>
  </g>
  <g id="Layer_2" data-name="Layer 2">
    <path class="cls-2" d="M7.03,7.39l4.72-1.41-5.05,1.42,2.88-.96c-1.95.72-3.93,1.38-5.93,1.98l8.16-1.8c-2.01.87-4.14,1.45-6.31,1.73,1.06.24,2.16-.04,3.21-.31,1.24-.32,2.47-.65,3.71-.97-1.77.55-3.54,1.11-5.3,1.66-.69.22-1.41.45-1.95.94,2.77-.56,5.54-1.12,8.3-1.68-1.62-.06-3.18.57-4.68,1.19-1.47.61-2.94,1.22-4.41,1.83,3.16-.93,6.33-1.85,9.49-2.78-2.75.82-5.52,1.65-8.1,2.92l7.84-2.12c-2.14,1.04-4.36,1.92-6.64,2.63-.09.03-.17-.12-.1-.19s.21,0,.22.09c-.35.07-.69.13-1.04.2,2.46-.72,4.95-1.34,7.46-1.85-1.87.56-3.73,1.13-5.6,1.69l7.15-1.76-8.33,2.2c1.22-.04,2.44-.24,3.61-.61l-2.99,1.06,4.98-1.17-5.83,1.67,6.75-1.86c-2.02.62-4.01,1.33-5.96,2.13,2.19.01,4.38-.23,6.52-.71-1.95.35-3.86.97-5.64,1.85l3.77-1.82-4.02.94,6.01-1.69-3.97,1.57c1.21-.61,2.28-1.48,3.13-2.54l-.36.84c.57-.49,1.1-1.02,1.6-1.59-.96,1.22-2,2.39-3.09,3.5"/>
  </g>
</svg>