<?xml version="1.0" encoding="UTF-8"?>
<svg xmlns="http://www.w3.org/2000/svg" viewBox="0 0 20 20">
  <defs>
    <style>
      .cls-1 {
        stroke-width: 0px;
      }

      .cls-1, .cls-2 {
        fill: none;
      }

      .cls-2 {
        stroke: #000;
        stroke-linecap: round;
        stroke-linejoin: round;
        stroke-width: .5px;
      }
    </style>
  </defs>
  <g id="Layer_3" data-name="Layer 3">
    <rect class="cls-1" width="20" height="20"/>
  </g>
  <g id="Layer_2" data-name="Layer 2">
    <path class="cls-2" d="M6.39,7.19c2.2-.28,4.38-.74,6.51-1.37-2.36,1.22-4.88,2.15-7.47,2.76,2.44-.75,4.93-1.36,7.45-1.81l-7.23,1.02,3.26-.12c-1.32.85-2.73,1.57-4.19,2.14,2.56-.63,5.12-1.2,7.7-1.73-1.58.27-3.15.61-4.7,1.01,1.62-1.02,3.38-1.8,5.21-2.31-2.42,1.18-4.89,2.27-7.39,3.26,2.43-.58,4.88-1.1,7.34-1.56-1.16.64-2.41,1.1-3.7,1.36.93-.41,1.89-.76,2.86-1.06-2.18-.03-4.37.15-6.52.56,1.56-.05,3.12,0,4.67.12l-1.81,1.85c-.7-.4-1.5-.62-2.3-.64,2.38-.67,4.78-1.26,7.21-1.76-2.62.6-5.26,1.15-7.9,1.66,2.86-.83,5.78-1.43,8.74-1.81-1.38,1.38-3.1,2.42-4.96,3.01l3.82-1.59c-3,.27-5.98.76-8.9,1.49l7.21-1.87-3.89,2.41c3.76-.73,7.59-1.14,11.42-1.23-3.05.33-6.07.94-9.01,1.83l.76-.22-3.31.02.97-.65c-.19-.05-.39-.04-.57.02.67,0,1.34,0,2,0l-2.2,1.17c.98-.21,1.97-.35,2.97-.41l-1.47.59,4.2-.88c-1.06.92-2.47,1.43-3.88,1.4,1.47-.34,2.91-.79,4.31-1.36-1.67.05-3.33.25-4.97.59l2.25-1.09c-1.27.25-2.51.65-3.69,1.19,1.89.12,3.8-.11,5.6-.68.2-.06.42-.16.46-.36.07-.35-.42-.5-.77-.49-2.71.06-5.42.42-8.06,1.06"/>
  </g>
</svg>