<?xml version="1.0" encoding="UTF-8"?>
<svg xmlns="http://www.w3.org/2000/svg" viewBox="0 0 20 20">
  <defs>
    <style>
      .cls-1 {
        stroke-width: 0px;
      }

      .cls-1, .cls-2 {
        fill: none;
      }

      .cls-2 {
        stroke: #000;
        stroke-linecap: round;
        stroke-linejoin: round;
        stroke-width: .5px;
      }
    </style>
  </defs>
  <g id="Layer_3" data-name="Layer 3">
    <rect class="cls-1" width="20" height="20"/>
  </g>
  <g id="Layer_2" data-name="Layer 2">
    <path class="cls-2" d="M5.95,7.05c1.64-.99,3.56-1.53,5.48-1.55-2.08.3-4.11.89-6.04,1.73,2.16.33,4.42,0,6.39-.94-1.96.47-3.95.79-5.95.97.8-.1,1.6-.21,2.41-.31.74-.1,1.53-.21,2.11-.68-1.96.35-3.88.88-5.74,1.57,2.92-.09,5.82-.52,8.63-1.29-2.5.29-4.97.78-7.39,1.46.74.3,1.59.19,2.38.05,1.76-.31,3.51-.71,5.29-.7-2.98.31-5.95.71-8.91,1.18.23.39.76.43,1.21.41,2.42-.08,4.83-.5,7.14-1.24-2.13.22-4.26.45-6.38.67,2.25.34,4.54.14,6.8-.08-2.72.5-5.47.87-8.22,1.11,3.09.16,6.19.11,9.28-.16-2.63-.21-5.26.11-7.87.43-.42.05-.88.12-1.15.44.89.22,1.82.15,2.74.07,1.71-.14,3.43-.28,5.12-.57-3.18.21-6.35.48-9.52.81,3.11-.09,6.21-.36,9.28-.83-2.28.42-4.56.85-6.8,1.46,2.25-.02,4.49-.29,6.67-.8-.2-.18-.51-.17-.78-.14-2.06.2-4.11.4-6.17.61,2.44.15,4.89.09,7.32-.17l-6.93,1.42c2.24-.18,4.47-.44,6.69-.78l-9.44.39c3.5-.09,7-.13,10.51-.13-2.53.48-5.1.78-7.67.9l4.29-.03-1.91.31c1.18-.09,2.36-.14,3.54-.15l-3.12.32,1.31-.11c-.63.11-1.26.25-1.88.41h1.52c-.37.47-.74.94-1.11,1.4.59-.39,1.22-.73,1.88-1.01-.52.05-1.04.15-1.55.31l2.79-.34c-.74.18-1.49.32-2.25.4.76-.3,1.55-.53,2.35-.69-1.7-.08-3.41-.1-5.11-.06h.29c-.23-.27-.43-.55-.57-.86.77.56,1.58,1.08,2.42,1.54"/>
  </g>
</svg>