<?xml version="1.0" encoding="UTF-8"?>
<svg xmlns="http://www.w3.org/2000/svg" viewBox="0 0 20 20">
  <defs>
    <style>
      .cls-1 {
        stroke-width: 0px;
      }

      .cls-1, .cls-2 {
        fill: none;
      }

      .cls-2 {
        stroke: #000;
        stroke-linecap: round;
        stroke-linejoin: round;
        stroke-width: .5px;
      }
    </style>
  </defs>
  <g id="Layer_3" data-name="Layer 3">
    <rect class="cls-1" width="20" height="20"/>
  </g>
  <g id="Layer_2" data-name="Layer 2">
    <path class="cls-2" d="M7.19,12.85c-1.06-.75-1.82-1.92-2.08-3.19,1.57.71,2.79,2.14,3.25,3.8-1.27-1.49-1.97-3.47-1.92-5.43.49.26.85.7,1.18,1.14.49.65.95,1.33,1.38,2.03.39.64.76,1.33.76,2.08-.29-.05-.5-.3-.67-.53-1.04-1.45-1.78-3.13-2.14-4.88.48.58.96,1.17,1.43,1.76.49.63.98,1.29,1.28,2.03s.41,1.6.15,2.35c-1.07-1.21-1.86-2.67-2.31-4.22,1.4,1.07,2.43,2.6,2.91,4.3-.58-.38-.92-1.02-1.23-1.64-.8-1.58-1.62-3.24-1.62-5.01,0-.21.06-.47.27-.51.19-.03.33.17.42.34.79,1.54,1.61,3.21,1.39,4.93-1.56-1.81-2.49-4.15-2.6-6.53,0-.18.07-.43.24-.4.07.01.12.07.16.12.86,1.05,1.73,2.11,2.43,3.28s1.23,2.46,1.35,3.82c.03.31.02.67-.22.87-1.47-1.6-2.33-3.74-2.38-5.91,1.11,1.81,2.14,3.67,2.92,5.64.27.67.5,1.39.41,2.11-1.21-.88-1.95-2.26-2.54-3.64-.53-1.23-.98-2.5-1.34-3.78-.26-.93-.48-1.9-.35-2.86.93,1.17,2.08,2.16,2.97,3.36s1.52,2.71,1.21,4.18c-1.4-1.94-2.75-4.1-2.78-6.49.82.3,1.25,1.18,1.54,2,.34.98.59,2.06.29,3.06-.69-1.41-1.25-2.88-1.67-4.39.47.27.71.81.89,1.33.61,1.74.98,3.57,1.1,5.41-.89-2.17-1.63-4.4-2.21-6.67.55.18.93.67,1.23,1.15,1.08,1.71,1.67,3.72,1.71,5.74-1.16-1.82-1.93-3.89-2.25-6.03-.07-.5-.12-1.01.02-1.49,1.51,1.24,2.34,3.25,2.15,5.19-.77-1.58-1.27-3.28-1.46-5.02,1.02,1.78,1.95,3.77,1.72,5.81-.67-1.46-1.03-3.05-1.07-4.66.94,1.66,1.58,3.48,1.88,5.37-.66-1.68-1.34-3.43-1.23-5.24.96,1.47,1.53,3.18,1.67,4.93-1.08-2.06-1.82-4.28-2.21-6.57.77,1.35,1.05,2.99.76,4.52-.61-1.25-.96-2.62-1.03-4.01,1.09,1.37,1.78,3.04,1.97,4.78-.67-1.34-1.08-2.8-1.19-4.29.88,1.95,1.34,4.09,1.34,6.23-.5-1.8-.82-3.65-.95-5.51.89,1.07,1.46,2.4,1.61,3.77-.64-1.46-1.09-3-1.32-4.58.6.94.98,2.02,1.11,3.13l-.8-2.54c.58.83.97,1.78,1.16,2.77-1.07-1.29-1.84-2.83-2.25-4.45.45.76.83,1.56,1.12,2.39.23.64.4,1.33.28,2-.9-.74-1.7-1.6-2.38-2.56.53,1.08,1.08,2.22.97,3.42-.66-.82-1.2-1.74-1.58-2.72-.13-.34-.25-.71-.14-1.06,1.19,1.6,1.75,3.66,1.54,5.64-1.19-1.41-2.18-3-2.92-4.69,1.39,1.84,2.73,3.71,4.03,5.61.41.6.81,1.21,1.13,1.86.3.61.52,1.28.5,1.96,0,.09-.01.2-.08.26-.14.14-.37.01-.52-.12-2.82-2.47-4.8-5.87-5.58-9.53-.11-.51-.19-1.04-.04-1.54,1.57,1.58,2.05,3.92,2.35,6.13-.34-.67-.57-1.4-.66-2.15.49.78.71,1.73.62,2.65-.56-1.05-1.18-2.07-1.87-3.04.57,1,.96,2.1,1.15,3.23-.8-1.22-1.31-2.63-1.47-4.08.78,1.62,1.57,3.26,1.92,5.03-1.16-1.68-2.16-3.47-3-5.34.45.46.76,1.07.87,1.7-.14-.49-.22-.99-.24-1.49.47.7.72,1.53.73,2.37-.74-.99-1.33-2.1-1.74-3.26,1.21,1.58,1.84,3.59,1.75,5.57l-.83-2.68"/>
  </g>
</svg>