<?xml version="1.0" encoding="UTF-8"?>
<svg xmlns="http://www.w3.org/2000/svg" viewBox="0 0 20 20">
  <defs>
    <style>
      .cls-1 {
        stroke-width: 0px;
      }

      .cls-1, .cls-2 {
        fill: none;
      }

      .cls-2 {
        stroke: #000;
        stroke-linecap: round;
        stroke-linejoin: round;
        stroke-width: .5px;
      }
    </style>
  </defs>
  <g id="Layer_3" data-name="Layer 3">
    <rect class="cls-1" width="20" height="20"/>
  </g>
  <g id="Layer_2" data-name="Layer 2">
    <path class="cls-2" d="M7.4,13.15l-.75-.67c-.22-.2-.44-.4-.56-.66s-.11-.61.1-.82c.52.4,1.02.84,1.46,1.33.47.51.92,1.24.59,1.85-1.3-1.11-2.03-2.86-1.92-4.57.24-.11.48.12.63.33.73,1,1.34,2.1,1.81,3.25.11.28.21.62.02.85-1.32-1.67-2.32-3.6-2.93-5.64.29,0,.54.2.75.39.77.7,1.49,1.46,2,2.36s.81,1.95.67,2.98c-.8-.65-1.61-1.3-2.3-2.07-.65-.73-1.22-1.68-1-2.63.06-.28.22-.57.5-.65.26-.07.53.07.75.21,1.92,1.28,2.82,3.65,3.16,5.94-.23.05-.44-.14-.6-.32-1.29-1.47-2.25-3.24-2.78-5.12-.06-.23-.12-.48-.02-.69.14-.31.56-.41.88-.31s.57.37.8.63c1.4,1.6,2.48,3.53,2.86,5.63-2.38-1.5-4.06-4.06-4.49-6.83-.02-.11-.03-.24.05-.32.14-.15.38-.01.52.13,1.22,1.19,2.24,2.59,2.99,4.13.26.53.49,1.1.45,1.69-.84-.36-1.47-1.09-1.99-1.84-.85-1.22-1.53-2.76-1.04-4.17,1.5,1.55,2.41,3.59,3,5.66.1.36.2.75.11,1.11s-.44.7-.81.64c-.2-.03-.37-.17-.53-.3-.75-.62-1.5-1.25-2.12-2s-1.11-1.63-1.25-2.6c-.05-.32-.01-.71.27-.85.32-.15.66.13.9.4.98,1.13,1.79,2.4,2.4,3.77-1.91-1.45-2.87-4.05-2.35-6.39.39.11.63.49.81.85,1.09,2.1,1.96,4.33,2.56,6.62-2.03-1.89-3.52-4.35-4.26-7.02-.03-.12-.05-.27.06-.33.05-.03.12-.02.17,0,1.35.3,2.48,1.31,3.09,2.55s.71,2.69.47,4.05c-1.32-1.75-2.31-3.76-2.88-5.88-.08-.3-.14-.67.09-.88.31-.28.81,0,1.09.3.56.6.97,1.31,1.38,2.02.76,1.32,1.54,2.71,1.54,4.23-.89-.96-1.67-2.05-2.18-3.26s-.75-2.55-.56-3.85c1.51,2.41,2.2,5.33,1.94,8.16-.64-.54-.99-1.33-1.29-2.11-.34-.89-.65-1.79-.92-2.7-.08-.26-.15-.52-.13-.79s.14-.54.38-.67c.98.33,1.72,1.18,2.16,2.11s.61,1.97.78,2.99c-.5-.34-.73-.94-.91-1.51-.36-1.13-.65-2.28-.93-3.43-.15-.63-.31-1.27-.23-1.91.25.13.39.4.5.66.77,1.67,1.28,3.47,1.49,5.3-.08.1-.25.1-.35.02s-.17-.19-.23-.31c-.62-1.25-1.09-2.57-1.4-3.93-.03-.15-.05-.34.09-.41.16-.08.32.1.4.25,1.16,2.06,2,4.31,2.47,6.63-.73-.75-1.62-1.34-2.32-2.12s-1.2-1.87-.89-2.87c.1-.34.39-.7.74-.66.15.02.28.11.4.2,1.09.89,1.41,2.4,1.65,3.79-.75-.27-1.35-.88-1.75-1.58s-.62-1.47-.82-2.25c-.1-.4-.16-.91.18-1.14.18-.12.41-.12.62-.07.64.16,1.1.72,1.43,1.29.66,1.15.99,2.49.93,3.81-.63-.66-.99-1.54-1.17-2.44s-.19-1.82-.19-2.73c1.14,1.05,1.63,2.74,1.23,4.24-1.31-1.09-2.58-2.38-3.02-4.03-.13-.49-.17-1.04.07-1.48.05-.08.11-.17.2-.2.17-.05.33.11.43.25,1,1.36,1.62,3,1.78,4.68-.17.08-.32-.13-.39-.3-.44-1.14-.78-2.33-.99-3.54-.04-.23-.04-.54.18-.61.66.72,1.26,1.52,1.66,2.42s.59,1.9.43,2.87c-.02.1-.06.22-.16.23-.05,0-.09-.02-.13-.05-2.07-1.29-3.59-3.41-4.15-5.78-.04-.18-.06-.41.09-.51.09-.06.2-.05.3-.03.48.09.86.44,1.2.79,1.2,1.25,2.1,2.8,2.6,4.47-.28-.11-.41-.44-.49-.73-.26-.95-.31-1.96-.14-2.93.02-.11.06-.25.18-.27.09-.02.17.04.24.1.61.54.89,1.43.7,2.23-.03.1-.1.23-.2.21-.04,0-.07-.04-.1-.07-.81-.88-1.47-1.9-1.92-3.01-.08-.19-.09-.49.11-.52,1.11,1.33,1.75,3.05,1.78,4.79-.84-.95-1.6-1.97-2.29-3.05-.41-.64-.8-1.36-.74-2.12.88-.02,1.56.76,2.02,1.51.82,1.34,1.41,2.82,1.74,4.36-.97-.53-1.55-1.69-1.41-2.78.04-.35.28-.77.62-.69.24.05.36.34.4.58.06.33.07.67.03,1-.47-.83-.82-1.72-1.05-2.65"/>
  </g>
</svg>