<?xml version="1.0" encoding="UTF-8"?>
<svg xmlns="http://www.w3.org/2000/svg" viewBox="0 0 20 20">
  <defs>
    <style>
      .cls-1 {
        stroke-width: 0px;
      }

      .cls-1, .cls-2 {
        fill: none;
      }

      .cls-2 {
        stroke: #000;
        stroke-linecap: round;
        stroke-linejoin: round;
        stroke-width: .5px;
      }
    </style>
  </defs>
  <g id="Layer_3" data-name="Layer 3">
    <rect class="cls-1" width="20" height="20"/>
  </g>
  <g id="Layer_2" data-name="Layer 2">
    <path class="cls-2" d="M8.92,14.22c-1.16-1-1.89-2.49-1.96-4.02,1.03.93,2.11,1.8,3.24,2.6.33.24.68.47.94.78s.45.71.41,1.12c-1.66-1.57-3.04-3.43-4.07-5.46.51.51,1.12.89,1.65,1.38s.97,1.14.96,1.86c0,.33-.21.73-.54.69-.16-.02-.28-.14-.39-.26-1.02-1.12-1.75-2.47-2.47-3.81-.22-.41-.45-.84-.43-1.3,1.28,1.28,2.56,2.55,3.84,3.83.4.4.81.81,1.06,1.33s.3,1.16-.01,1.63c-2.18-1.44-3.69-3.86-4.01-6.45-.02-.17,0-.4.17-.43.08-.01.15.03.22.06.56.31,1.12.63,1.6,1.06.88.81,1.37,1.95,1.84,3.05.18.42.36.84.43,1.29-.6-.87-1.2-1.75-1.81-2.62-.84-1.23-1.73-2.59-1.59-4.07.85.71,1.64,1.5,2.35,2.36,1.16,1.41,2.13,3.11,2.05,4.93-.01.27-.05.54-.18.77-.71-.84-1.55-1.57-2.25-2.42-1.4-1.7-2.19-3.81-2.71-5.95,1.08,1.69,2.15,3.38,3.23,5.06.81,1.26,1.64,2.62,1.64,4.12,0,.31-.07.68-.36.81-.33.16-.7-.12-.95-.4-1.44-1.6-2.22-3.69-2.71-5.79.47,1.19.8,2.43.97,3.69-.51-.3-1.02-.62-1.38-1.09-.28-.37-.44-.82-.56-1.28-.19-.74-.27-1.5-.24-2.26.99.94,1.8,2.06,2.6,3.16.23.32.48.69.42,1.08-.3.03-.54-.22-.72-.46-.84-1.13-1.4-2.46-1.62-3.85,1.36.16,2.54,1.32,2.73,2.67-.9-1.17-1.69-2.49-1.87-3.95.16-.16.43,0,.6.14,1.03.91,1.95,1.95,2.71,3.1.43.65.83,1.38.77,2.15-2.03-1.69-2.97-4.35-3.43-6.95-.01-.08-.03-.17,0-.24.1-.24.47-.11.66.07,1.45,1.33,2.07,3.49,1.55,5.39-.83-1.06-1.44-2.3-1.78-3.61.75.19,1.46.57,1.96,1.16s.76,1.4.6,2.15c-1.04-1.14-1.71-2.61-1.86-4.15.57.61,1.01,1.32,1.45,2.02.71,1.14,1.45,2.45,1.13,3.76-1.47-1.08-2.36-2.91-2.3-4.73,0-.19.03-.41.18-.54.28-.24.71.02.95.31.88,1.05,1.32,2.46,1.18,3.82-1.29-.77-2.25-2.08-2.6-3.54-.04-.17-.07-.34-.02-.5s.22-.3.38-.26c.11.03.19.12.26.2.96,1.19,1.56,2.65,1.73,4.16-1.89-.86-3.14-2.97-2.98-5.04,0-.1.02-.21.1-.28.06-.06.15-.08.23-.08.58-.01.92.63,1.1,1.18.33,1.03.56,2.1.68,3.18-1.1-1.42-1.82-3.14-2.04-4.93-.01-.09-.02-.2.02-.28.11-.24.47-.18.7-.06.84.41,1.59,1.02,2.17,1.76.25.32.47.67.55,1.07s0,.84-.28,1.13c-.48-.75-.85-1.56-1.1-2.41,1.19.88,1.78,2.49,1.45,3.93-1.16-.9-1.93-2.3-2.05-3.77-.01-.15.07-.36.2-.3.94,1.79,1.47,3.79,1.51,5.81-.78-.67-1.41-1.51-1.81-2.45-.3-.7-.48-1.54-.11-2.2.07-.12.17-.24.31-.26.12-.01.24.07.33.15,1.59,1.32,2.71,3.21,3.1,5.24-.35-.12-.59-.43-.82-.71-1.09-1.39-2.2-2.83-2.68-4.53.07-.14.29-.02.39.1.53.67,1.03,1.36,1.36,2.14s.48,1.66.29,2.49c-1.38-.79-2.2-2.28-2.82-3.74-.19-.45-.37-.94-.32-1.42s.42-.98.92-1c.47-.02.85.37,1.12.75.75,1.08,1.16,2.45.87,3.73-.04.19-.17.42-.36.38-.07-.02-.12-.07-.17-.12-.54-.58-.92-1.31-1.09-2.09-.04-.18-.07-.38,0-.56s.29-.3.46-.21c.08.04.13.11.18.18.47.69.69,1.54.62,2.37,0,.11-.03.22-.1.29-.14.14-.37.06-.54-.02-1.36-.69-2.49-1.84-3.17-3.21-.07-.14-.13-.28-.13-.44s.1-.31.25-.34c.11-.02.22.03.31.09,1.01.58,1.62,1.8,1.48,2.96,0,.07-.02.15-.08.19-.05.04-.12.03-.18.02-.3-.07-.53-.31-.71-.56-.64-.82-1.1-1.78-1.37-2.78-.03-.1-.05-.22.01-.31.04-.05.1-.08.17-.1.44-.13.92.17,1.14.57s.25.88.24,1.34c0,.81-.09,1.63-.25,2.43-.05.28-.14.58-.38.73-.23.14-.52.09-.77,0-1.43-.49-2.41-2.05-2.23-3.55,1.38,2.1,2.02,4.68,1.8,7.18-.92-1.58-1.43-3.39-1.45-5.22.91,1.1,1.63,2.35,2.15,3.68-1.32-.79-2.16-2.33-2.11-3.87"/>
  </g>
</svg>