<?xml version="1.0" encoding="UTF-8"?>
<svg xmlns="http://www.w3.org/2000/svg" viewBox="0 0 20 20">
  <defs>
    <style>
      .cls-1 {
        stroke-width: 0px;
      }

      .cls-1, .cls-2 {
        fill: none;
      }

      .cls-2 {
        stroke: #000;
        stroke-linecap: round;
        stroke-linejoin: round;
        stroke-width: .5px;
      }
    </style>
  </defs>
  <g id="Layer_3" data-name="Layer 3">
    <rect class="cls-1" width="20" height="20"/>
  </g>
  <g id="Layer_2" data-name="Layer 2">
    <path class="cls-2" d="M8.51,14.03c-.86-.27-1.74-.68-2.26-1.43-.3-.44-.45-.95-.58-1.46-.2-.79-.38-1.62-.24-2.43.27-1.57,1.68-2.73,3.17-3.32,1.48-.59,3.12-.76,4.69-.49.68.12,1.39.34,1.83.87.27.32.42.73.53,1.14.64,2.49-.3,5.31-2.3,6.92-.23.18-.48.35-.76.42-.35.07-.7-.03-1.04-.12-1.15-.33-2.31-.66-3.46-1-.39-.11-.81-.24-1.04-.57-.19-.27-.22-.63-.22-.96.02-1.3.43-2.56.84-3.79.13-.38.28-.8.64-.98.17-.09.36-.11.55-.12,1.44-.09,2.91.27,4.15,1.02.2.12.4.26.49.47.1.22.05.48-.01.72-.38,1.45-1.29,2.76-2.52,3.62-.45.32-.96.58-1.51.6-.93.03-1.74-.66-2.25-1.44-.51-.76-.84-1.64-.96-2.54-.04-.28-.05-.58.06-.84.17-.39.58-.61.97-.77,1.57-.64,3.32-.81,4.98-.48.54.11,1.09.27,1.53.6s.78.84.79,1.39c0,.53-.28,1.01-.57,1.45-.85,1.29-1.99,2.57-3.51,2.81-.69.11-1.4-.02-2.07-.22-1.07-.33-2.18-.97-2.5-2.05-.21-.72-.02-1.5.21-2.22.17-.53.37-1.06.71-1.49.78-.98,2.22-1.25,3.43-.92s2.22,1.16,3.08,2.07c.55.59,1.09,1.31,1,2.11-.1.93-.99,1.55-1.81,2.01-.7.4-1.42.78-2.2.96s-1.64.15-2.34-.25c-.32-.19-.59-.44-.86-.69-.44-.41-.88-.83-1.2-1.34s-.51-1.12-.39-1.71c.19-.94,1.09-1.56,1.95-1.96.62-.29,1.27-.54,1.94-.72.61-.17,1.29-.27,1.85.02.75.4.98,1.37.9,2.21-.14,1.4-.93,2.64-1.69,3.82-.22.35-.48.72-.87.84-.46.14-.95-.1-1.32-.42-.93-.8-1.38-2.04-1.51-3.26-.06-.55-.04-1.16.31-1.59.3-.36.77-.51,1.22-.61,1.83-.41,3.78-.24,5.51.47.26.11.56.27.6.55.03.18-.06.35-.14.5-.55,1.01-1.31,1.88-2.08,2.73-.35.38-.72.77-1.2.99-.56.25-1.24.22-1.77-.07s-.92-.85-1-1.46c-.09-.65.15-1.31.47-1.89.21-.37.46-.72.81-.95s.82-.31,1.2-.12c.52.28.66.96.63,1.55-.03.54-.17,1.09-.51,1.5s-.93.65-1.44.49c-.3-.1-.55-.33-.76-.57-.32-.36-.58-.78-.68-1.25s0-1,.32-1.35c.33-.36.86-.49,1.35-.44s.95.25,1.39.46c.64.31,1.35.8,1.32,1.51-.02.55-.5.97-.98,1.25-.49.29-1.03.51-1.58.65-.67.17-1.44.22-2-.18-.68-.47-.84-1.48-.48-2.23s1.16-1.21,1.97-1.35,1.65.02,2.44.27c.58.18,1.14.42,1.67.7.26.14.52.29.69.53.42.58.14,1.46-.43,1.9s-1.32.54-2.03.6c-1.28.09-2.57.06-3.84-.1-.13-.02-.28-.04-.38-.13-.13-.11-.16-.3-.16-.47-.03-1.24.72-2.34,1.44-3.35.21-.29.45-.6.79-.67.27-.06.55.05.8.16.64.29,1.25.64,1.81,1.06.39.29.78.65.83,1.13.06.58-.4,1.06-.83,1.45-.43.38-.88.74-1.34,1.08-.14.1-.29.2-.46.23-.15.02-.31-.03-.45-.09-1.28-.51-2.22-1.79-2.32-3.16-.05-.72.15-1.52.75-1.93.45-.3,1.04-.32,1.57-.18s.99.43,1.46.71c.25.16.51.31.72.53.48.51.58,1.31.33,1.96s-.81,1.16-1.45,1.44c-.17.07-.35.13-.54.13-.23,0-.44-.11-.64-.21-.82-.4-1.62-.85-2.4-1.34-.24-.15-.48-.31-.63-.56-.3-.51-.02-1.21.46-1.56s1.09-.45,1.68-.54c.28-.04.57-.08.84,0s.52.32.51.6c0,.16-.09.31-.17.45-.34.58-.71,1.13-1.12,1.66-.2-.26-.4-.53-.48-.85s.02-.7.3-.87c.38-.22.87.04,1.17.36.25.26.46.58.49.94s-.14.75-.48.88c-.34.13-.75-.07-.95-.38s-.21-.71-.15-1.07c.03-.15.08-.31.19-.41.12-.11.29-.14.46-.16.65-.09,1.49-.08,1.74.52.14.34.01.74-.12,1.09-.17.44-.35.91-.73,1.19-.23.17-.52.25-.79.31-.66.15-1.35.23-2,.03-1.25-.38-2.02-1.89-1.63-3.14s1.82-2.06,3.11-1.78c.92.2,1.71.89,2.07,1.76s.33,1.88-.04,2.75c-.15.35-.35.68-.65.92-.66.51-1.65.41-2.34-.07s-1.1-1.25-1.38-2.04c-.24-.7-.39-1.48-.1-2.16.4-.95,1.5-1.39,2.51-1.63.38-.09.78-.16,1.16-.1.45.07.85.32,1.23.57.81.52,1.7,1.14,1.86,2.1.16.97-.5,1.86-1.12,2.62-.22.27-.45.55-.75.75-.33.22-.73.31-1.12.34-.92.05-1.81-.29-2.67-.63-.16-.06-.32-.13-.44-.25-.11-.12-.16-.29-.2-.45-.25-.93-.32-1.91-.23-2.86.04-.38.11-.76.32-1.08.28-.42.78-.66,1.29-.73s1.01.03,1.51.14c.58.14,1.19.34,1.53.83.3.43.32.99.26,1.51-.1.79-.44,1.63-1.18,1.93-.66.27-1.45-.02-1.92-.55s-.64-1.28-.64-1.99c0-.17.01-.36.11-.5.23-.31.71-.23,1.07-.09.45.17.91.36,1.24.72s.47.92.22,1.33-.96.49-1.2.07c-.02-.3.3-.58.6-.53.16.47.13.99-.08,1.44-.03.07-.07.13-.13.17-.16.08-.33-.09-.42-.24-.21-.37-.36-.82-.23-1.23s.64-.7,1.01-.49c.39.23.38.79.31,1.24"/>
  </g>
</svg>