<?xml version="1.0" encoding="UTF-8"?>
<svg xmlns="http://www.w3.org/2000/svg" viewBox="0 0 20 20">
  <defs>
    <style>
      .cls-1 {
        stroke-width: 0px;
      }

      .cls-1, .cls-2 {
        fill: none;
      }

      .cls-2 {
        stroke: #000;
        stroke-linecap: round;
        stroke-linejoin: round;
        stroke-width: .5px;
      }
    </style>
  </defs>
  <g id="Layer_3" data-name="Layer 3">
    <rect class="cls-1" width="20" height="20"/>
  </g>
  <g id="Layer_2" data-name="Layer 2">
    <path class="cls-2" d="M7.22,13.12c-.82-.87-1.19-2.05-1.53-3.19-.15-.5-.31-1.03-.21-1.55.21-1.07,1.38-1.64,2.44-1.89.93-.22,1.88-.32,2.84-.29.22,0,.43.02.64.09.26.09.49.27.71.44.29.23.58.46.87.69.13.1.26.21.33.36.05.13.05.27.05.4-.04,1.72-.07,3.44-.11,5.17,0,.26-.02.55-.21.72-.11.1-.25.14-.39.17-.96.16-1.84-.5-2.7-.95-.71-.37-1.48-.62-2.21-.97s-1.41-.84-1.8-1.55c-.72-1.32,0-3.17,1.37-3.78.53-.23,1.14-.31,1.71-.2,1.05.19,1.92.95,2.57,1.8.52.68.94,1.46,1.05,2.3s-.16,1.77-.82,2.31c-.52.43-1.23.58-1.91.53s-1.32-.28-1.95-.53c-.16-.07-.34-.14-.45-.28-.14-.17-.17-.41-.19-.63-.09-.99-.17-1.99-.02-2.97s.57-1.95,1.33-2.59c.11-.09.23-.18.37-.22.22-.07.47-.02.7.03,1.32.28,2.83.7,3.4,1.93.3.65.26,1.43-.02,2.08s-.79,1.2-1.38,1.61c-.87.6-1.92.91-2.98.89-.4,0-.8-.07-1.15-.26-.49-.27-.8-.75-1.1-1.22-.33-.53-.67-1.08-.73-1.7-.05-.56.14-1.11.37-1.62.08-.17.16-.34.29-.47.17-.16.4-.24.63-.3,2.15-.57,4.59.11,6.14,1.71.4.41.76.94.67,1.5-.05.35-.28.65-.51.93-.65.78-1.47,1.51-2.48,1.65-.87.12-1.75-.24-2.42-.8s-1.16-1.31-1.58-2.08c-.16-.29-.31-.59-.34-.91-.04-.45.17-.89.37-1.3.12-.24.24-.49.47-.63.18-.12.41-.15.62-.17.81-.09,1.65-.17,2.44.06s1.53.81,1.7,1.61c.16.75-.19,1.53-.73,2.07s-1.24.89-1.92,1.22c-.14.07-.3.14-.45.11-.14-.03-.26-.13-.36-.24-1.06-1.08-1.72-2.54-1.83-4.05-.01-.15-.01-.31.09-.42.08-.09.21-.11.33-.13.68-.1,1.36-.12,2.04-.07.82.06,1.72.29,2.14,1,.29.5.26,1.13.16,1.7-.14.79-.4,1.57-.76,2.29-.2.39-.43.78-.8,1.02-.56.38-1.33.33-1.95.04-.89-.42-1.53-1.33-1.67-2.31s.22-2.01.91-2.72c.69-.72,1.78-1.12,2.72-.78.4.15.75.42,1.06.72.47.46.87,1.05.91,1.71.04.78-.44,1.51-1.05,2.01-.18.15-.41.3-.64.26-.2-.03-.36-.17-.5-.32-.78-.83-1.33-1.89-1.54-3.01-.02-.08-.03-.17,0-.25.04-.08.12-.12.19-.16.77-.35,1.79.03,2.14.8s-.03,1.79-.8,2.13c-.27.12-.59.17-.86.06-.33-.13-.55-.45-.73-.76-.26-.43-.51-.93-.34-1.4.15-.43.6-.66,1.02-.84.43-.18.89-.35,1.35-.3s.93.39.97.86c.03.35-.18.68-.44.92-.31.28-.71.47-1.13.42s-.8-.39-.8-.8c0-.37.28-.7.62-.85s.72-.17,1.09-.18c.12,0,.24,0,.33.07.06.06.09.14.12.22.25.83.36,1.7.32,2.57-.02.4-.08.83-.37,1.11-.43.42-1.16.29-1.64-.06-.52-.38-.86-.96-1.13-1.54-.25-.53-.45-1.09-.61-1.65-.09-.32-.16-.65-.11-.97s.25-.65.56-.76c.36-.13.76.06,1.09.26.58.36,1.11.78,1.6,1.25.37.36.72.77.88,1.26s.13,1.08-.22,1.46c-.45.5-1.27.51-1.86.19s-1-.89-1.36-1.46c-.18-.28-.36-.57-.39-.9-.04-.43.18-.86.51-1.16s.73-.47,1.15-.61c.6-.21,1.22-.35,1.85-.43.64-.08,1.37-.06,1.82.41.41.43.42,1.14.17,1.68s-.72.95-1.2,1.31c-.66.49-1.38.92-2.12,1.27-.31.14-.67.27-.97.11-.18-.1-.29-.29-.38-.47-.31-.61-.51-1.42-.06-1.93.22-.25.56-.37.89-.43.27-.05.55-.08.8.04s.42.42.31.67c-.3.06-.59-.28-.49-.57.05.27-.05.56-.24.75v-.37"/>
  </g>
</svg>